<mxfile host="Electron" agent="Mozilla/5.0 (Windows NT 10.0; Win64; x64) AppleWebKit/537.36 (KHTML, like Gecko) draw.io/24.7.8 Chrome/128.0.6613.36 Electron/32.0.1 Safari/537.36" version="24.7.8">
  <diagram name="Página-1" id="x28Qt5PF30iTPgw8YS0N">
    <mxGraphModel dx="1863" dy="1775" grid="1" gridSize="10" guides="1" tooltips="1" connect="1" arrows="1" fold="1" page="1" pageScale="1" pageWidth="827" pageHeight="1169" math="0" shadow="0">
      <root>
        <mxCell id="0" />
        <mxCell id="1" parent="0" />
        <mxCell id="tpbJYBQwwvRPyvvn6ZV0-1" value="" style="shape=curlyBracket;whiteSpace=wrap;html=1;rounded=1;labelPosition=left;verticalLabelPosition=middle;align=right;verticalAlign=middle;size=0.125;" vertex="1" parent="1">
          <mxGeometry x="75" y="47.5" width="20" height="415" as="geometry" />
        </mxCell>
        <mxCell id="tpbJYBQwwvRPyvvn6ZV0-2" value="&lt;b&gt;&lt;font style=&quot;font-size: 20px;&quot;&gt;Reglas para calcular probabilidad&lt;/font&gt;&lt;/b&gt;" style="text;html=1;align=center;verticalAlign=middle;whiteSpace=wrap;rounded=0;" vertex="1" parent="1">
          <mxGeometry x="-430" y="240" width="670" height="30" as="geometry" />
        </mxCell>
        <mxCell id="tpbJYBQwwvRPyvvn6ZV0-4" value="&lt;b&gt;Regla de la adición (Regla del &quot;o&quot;)&lt;/b&gt;" style="text;html=1;align=center;verticalAlign=middle;whiteSpace=wrap;rounded=0;" vertex="1" parent="1">
          <mxGeometry x="80" y="60" width="120" height="30" as="geometry" />
        </mxCell>
        <mxCell id="tpbJYBQwwvRPyvvn6ZV0-5" value="Esta regla se utiliza para calcular la probabilidad de que ocurra &lt;strong&gt;uno&lt;/strong&gt; de dos o más eventos. Hay dos versiones de esta regla, dependiendo de si los eventos son mutuamente excluyentes o no." style="text;html=1;align=left;verticalAlign=middle;whiteSpace=wrap;rounded=0;" vertex="1" parent="1">
          <mxGeometry x="210" y="70" width="480" height="30" as="geometry" />
        </mxCell>
        <mxCell id="tpbJYBQwwvRPyvvn6ZV0-6" value="" style="endArrow=classic;html=1;rounded=0;entryX=0.1;entryY=0.5;entryDx=0;entryDy=0;entryPerimeter=0;" edge="1" parent="1" target="tpbJYBQwwvRPyvvn6ZV0-7">
          <mxGeometry width="50" height="50" relative="1" as="geometry">
            <mxPoint x="650" y="60" as="sourcePoint" />
            <mxPoint x="700" y="10" as="targetPoint" />
          </mxGeometry>
        </mxCell>
        <mxCell id="tpbJYBQwwvRPyvvn6ZV0-7" value="" style="shape=curlyBracket;whiteSpace=wrap;html=1;rounded=1;labelPosition=left;verticalLabelPosition=middle;align=right;verticalAlign=middle;" vertex="1" parent="1">
          <mxGeometry x="710" y="-50" width="20" height="170" as="geometry" />
        </mxCell>
        <mxCell id="tpbJYBQwwvRPyvvn6ZV0-8" value="&lt;h4&gt;&lt;strong&gt;Para eventos mutuamente excluyentes&lt;/strong&gt;:&lt;/h4&gt;&lt;p&gt;Dos eventos son &lt;strong&gt;mutuamente excluyentes&lt;/strong&gt; si no pueden ocurrir al mismo tiempo. En este caso, la probabilidad de que ocurra uno de los eventos es la suma de las probabilidades individuales de cada evento.&lt;/p&gt;" style="text;html=1;align=left;verticalAlign=middle;whiteSpace=wrap;rounded=0;" vertex="1" parent="1">
          <mxGeometry x="740" y="-30" width="510" height="30" as="geometry" />
        </mxCell>
        <mxCell id="tpbJYBQwwvRPyvvn6ZV0-10" value="&lt;h4&gt;&lt;strong&gt;Para eventos no mutuamente excluyentes&lt;/strong&gt;:&lt;/h4&gt;&lt;p&gt;Si los eventos no son mutuamente excluyentes (es decir, pueden ocurrir simultáneamente), debemos restar la probabilidad de la intersección de ambos eventos, ya que ha sido contada dos veces.&lt;/p&gt;" style="text;html=1;align=left;verticalAlign=middle;whiteSpace=wrap;rounded=0;" vertex="1" parent="1">
          <mxGeometry x="740" y="60" width="490" height="30" as="geometry" />
        </mxCell>
        <mxCell id="tpbJYBQwwvRPyvvn6ZV0-11" value="" style="shape=image;verticalLabelPosition=bottom;labelBackgroundColor=default;verticalAlign=top;aspect=fixed;imageAspect=0;image=data:image/png,iVBORw0KGgoAAAANSUhEUgAAATgAAAA3CAYAAACYXlYLAAAAAXNSR0IArs4c6QAAAARnQU1BAACxjwv8YQUAAAAJcEhZcwAADsMAAA7DAcdvqGQAAA77SURBVHhe7Z1/bBPnGce/25AKgjRMneaok+qIeiRjzIkYJGrLiJrQrJ3yYzRA/wAFFBrWLkBFU1AbSFsSoBBCRxM6jRS6kha1ioHOTleWQCFGqJ0djWFPIMIEshFUdlU0ewPZiErv3rt788u5s++cH74c70d64/fe84+7957neZ/3eZ+7fI9QwOFwOAbk++yVw+FwDAc3cBwOx7BwA8fhcAwLN3AcDsewcAPH4XAMCzdwHA7HsHADx+FwDAs3cBwOx7BwA8fhcAwLN3AcDsewcAPH4XAMCzdwHA7HsHADx+FwDAs3cBwOx7BwA8fhcAwLN3AcDsewcAPH4XAMCzdwHA7HsHADx+FwDAs3cBwOx7AYx8CF3dhTsQ6Om2xbI9FwGNHv2IZRuOnAulWt8N5h2/cp/qPrsHSvF1G2rRVRNlh9GFEv9qx6Bd3X2fb9xCj1LSFjJLsp+q9aUfh7XfBF2KYS0zKQPScLpulsW4k7tLPL6oBdn2HTgqmsUQPXbVg5dw3M9m+w48kkPj9e3OqD82KAbcRhZiZyZ5uRLnPo0d49KHkV2OnYhLxE/agH7vjh/ocPiUUjG9ZZJkydwhoU8B9dg5Lup/FZ2zKYWZsWol814qlfu1F9oROVs1jjUKjsrCn7G552HMKyR1ibDglfcuLCt2xDkR8iM2c2zHKCNBQ1+qYT2U2RgfPD9vt1aP8aCFx0oi9Im2bloSBzmrSbEfE54b5mQkHNTjRvXYYs2ZMMo/vl+Wh69BhO1VhZmxakzy89GETZ+//GR0tNrD31hE82YuW7buB/Pjh7/bTFjLzCTAzvpf4+NKNszxG8+zsr0ll7P953F6PCswHn2sqgn7NT4JoN615uh/+7AC6f7YMgGuYFBchMk3ZLROA77YbfVID1bzWjfmkWZNXM24rFFX5s/nszih9ibZrworVoIbb0AvVf/JcqM2uOIXziFcxvNuHYXzfBmsA2pIYwnLtr0PxVmOkUbTJloeDnGdLufgKX4bwUhHnJDhx6ez3yZPtMnb7pRnYFA5c6fORweRpJS0sjtZ+HWNtQQsSzv0Lcb6m2kwBrHUrkdB2xWOpIz23WoJHIlw1kIf1+4TcW7vewVhXcC5DAt6yuktANuTNQAT1G4fjSyg/THpMh1EXqLNI5VPxZ5h23e+h+i0If65Srh0mJeF1qSZesaHhIy7PCfgupOi7Xr1S26H7Z/lCJ7+MVUr/TEr/vpN8q0iI/KSFCerZK56Mk64HjtcQinHNhE/FEWOMQNOtbimU3tTG4cB+8p4VKAaxZsbZbIB3W0udQRmvBT/agwyu1DuJHx/5WZKx7DgVJubBevLfViQfYyOy5rSFK8892/PQgHaFU40bbz9rpX+14z3eLr6bHsuWnWenFKH9eqnYfdNCzimF6AZ5bl4G25vaR+3RKuM8Lp1AptEJeNKwoWyZKBmx7O0acV/RMGxpPVqKyNJmJKeVWN1p3BZDHnJTAnXiyYUb56kq497Wj+xZrGhVBOOgMxyG4r2PKFXjPSLVFc2ZLlRhMS5ajUqj0NqL9TFhsG0S7vqVadlNr4C650Ca8WouRKxffEAgFaLcKeBC9K1YG6e2gQlyA6tJkpqb0cn3QAPtv3kb9b5jzGwxRB1xvBNHn9oi15f3algTWJ5cjp7cF9rPJhtonlr7zomQg56lcecWghG9JkgFvNGYRIIjOD1oRfGlZklPTKJz7avGfN97GhjlSiz8Y39qkLyrD2mAb2k6wYxold++EcHesF72u98ElWom1KJinMJcOD+rACKOuWd9SL7spNXD91h1PWiE/ntAuuuKipk2gDJkPi5UB3KfbEIxnHOMhjND7slD/ghXZ5nzWprBalkqil3HhU6FShtzZSgEeL1ydUq34+TLIipI1H2WmINq/mgw+HD2fE1JNydMYqjxYkjncCN48Czvts7WP58rH5hLhfQ+Nlzbh9SVWZDwqNSX07tNzkL+EeiEn3fTI9En4ogsOoaLkFQtc8cAuVkzIMQ+PemnWNx3IbgoN3KCAKgtiEGc7xUsC00vVKP2JWGUIHUNFKY5xVEYaofHWZtHVnjqdBVuvBvQnnP9yo0N4LSxG3rDz7ycK9+6XsYVee/PKj7B3tZK/k4WcUtqjna6kXP0J5aYKT4MZMUER168uHRaADnsFRVYKeyTCj/ZtdpS/USkazakzcqTmhN69CVl59L2f0gFZf9MAkT6vZLqUvWIqS6cdkg48VY/lwxZVktA3Hchu6gxc2AOXKKDKgug/Woc6+h7TMztw7NWC4UYw6MMFerYFj2ZqH6WFEfr661j/jPS76T9i6jFiqpN6/BfPigInF8OIXneiddUCLD44Devf78W5P5YpTufoWVJvhCqg9wJ8urPiw5EMFEXR0/DDtq2OvseE4reOoT4mtcd/SVBkK8wxHr8awida0T5vJ6qZK2EysR5V4d2bZwkzATs8wiql7mAGiqLkFUd7W1G3gzodC9bi6B8kAz9AEvqmB9lNnYHrd4VnL4L5oTDC4cHi9zrQtqEUi6vcyNlyFOeOrIc1Nqj5dR/O0pf0GVrNGxuha4fkRU0Rxl+BywjoSvmDcJ8RQ+0I7liMBx98cFj58dxStKevx6kuG3YszRqxxB6LpKxX4Fd7juFuNP62FKXJlm3dScU0+z2NrMfMmDlELsJhP7ydbVhXshhr3DmoP3YOR2usMQoXhE/MO5qJaVpF444TTa8Bm1/IG/zOHzwgvX7pkzybOEgDZRDBgA5duAGveBlyzXeH9GkYwStO2HavxIKiNoRX70fv8WYUx+b0ada3FMtuP2w1dcLx7F8oLR/nFJGS8pLh5cU6csDWQy7HS8NwN4mfb3KzbZUEjleRol0uMmwF/EYHWSEcS9oK0nGDtSVC+H36Pepxkaa0JvpXA5EeUiceVxWxy2VC3AuQrjeL6H4LKWmOOScZhCV+rX0WCYVIKNmS6IBk8ZCWJ6S0gbmFMXJBS83WA6TDeZmE7rG3jyBAOirp5ys7ZNOKlIkQT3MRWWGL+RSTszQ1146ltoz4Ds0I56BBFlUQ+rxWOg/L/BF9WlJZSxo+tBPPjTgXTKu+6UB2BVJk4JgQCsLwcZJ5SskYODGnpooc7otRxIuHmYGzkKbz7L2JmAgDR39DzElSyiESGBAkC6ntTpArlEyfTTRDBxs/a9NEkgaOGqeKXzaQnm9jZKOb5XEpKepQ2LGrMnC3fcTl7CE9ssVOGqjhaTgut08qLr+20cO1yyKdx3ZNEjiIVtnRieymZoo6EH/LQf4c5Zl3XL7TGi2LwvunRjge+Qa2zSuxctWQUtfOVmqp/6uj+1EHYhi/Uk6VwNRs5C4RKkG0ne8TmyYzA/E3az6ykrr1icqF5msYhGPXHvgz3GheEyMb7wiRPoG7Y5+2MWEMxt/WzssSXzWjUd/0IrupMXD9+W+mMuQnmx4zRWOA5VoHGj4vx5EvOtH5l9jyNirZOoNH8yR/vBiMYSyfF2/dyo/L4mBBh4sE8ZHo7RCrqUe40XxovEZTSWLFpj//zVSaL58ykBDaBwnuT40leqYFW2bsxanPZGTjUD0Wie9ywPe1WFHmbkR9zHG6GXmLClAgW/KRnZ6O7Dy5fVLJe0SD/A/kvwn6lijapYAmfdOH7AqkxMAN5L+V5iDJ8WRgYUCdQQrCtu095O+qVlAaEzIfZ1W1I9XDmSjzB9QL9E0/PLH5WvEY8HLj5RAJymlHu1grRvUz8U2ClBibg6ksbp6QcDf2DPVmtJbdWhcZqKfB8t/KrUlLBh4Qzu9TH1UfFUTdaK334/XaYvlAtykD2aya8Gkzt4Li3RcZ07UYg/FnIP9N8Ipl0zVUoEXf9CC7/bCp6gQyeP/pqIKxATupot9RouJeQyHAOndjF1Ge5Q/GBNXH1UKka2MJaXKriYVEiGt7kbb76dTEMPwdpEq8j89CqmyJ+0Fa2FG4t1MPDNx/OroAu6dZiDfVkR4Vl8azvyjBPaRC7FSSjUTyKgXyF5KWUd+SOpaLDIP3n1o0xYxj0KBvepLdifPgqGckTlu8XXCI958CWelTxbaknsNmykQuNfrOqz75/CTx94LwHt2ClRvakGmeSadbMu+8I0ynaHv/8H0rgKCq6VU6ihvrgW3L0HgyqJwjFe6DbXMJ6qbsxHaWdxcPaUpIPYFulnD5i4yYVAmh+OH+aAtKi9bAFszD2iOncGhpIt8wjMBVT/ws9lQhXoMwvKcd0v2n1K9PnyG0JbwIspjnlNO/XviVppRRqQ+d76zEitfcyDalIyzz3DHxWtCLMLVQ2g5TDy2evPqvuejfRbBqzzwfB5i+Bc+i+xOpJV84T6EtmW5NpG8UXcouM3TjTIDYq6VRRK7IPw0iEXRkepOO1E+0ELkBcyANZWixNMW810Oa2JMMRhSFp5eM4F6A9OyrIvPzK0jt9hZy2CGtctk/bCENGyvI3JwVpMlxOeEyuMh5NvKpKHMLV5DafXbiUf1EE+qJ0HNduG/U7sXYwjwDuXNUtXIph7AiSj+v9ISaro0yvxV7veMcl6VZrg/ZLOBFe5yZglpG78FJXuzIYxeK/PEnIr6+6VV2U/y4pNERcTbQTi0hh6+yhlRyL0J8nh7SZTtAWvYdIB3dPcSjcSl/XPG0kIVjMn2aDEiPL0rb2qNuYBkLQl2klipvjWMs5v9jOUUdO1Kmb6OQ3Ult4AQPTEgK1Z1XokM8+6hH+2ycmIjBCDlqqLdQQ+wan9mXLOLvWRpUxf0SQ2c8L9JjT8Z7HVdSo2+jkd1JbuCkwO5oHnh5X8AeGlh3Wkce5bhDlbFwdA+8VM/oH645WZhwfRul7E56AyeOdtWWSfA01dQhrBRaJnK6phMi55tIkaWWdI2zFycq/X3jHU+svo1Wdg1g4Ci3XaSpsEhlysb9RcRNlbywibjuUw/XZ6sic6s7xs/4COkOOVVJ3lY2SZkgfRsL2TWGgRMI0U5/tobYdRaYTSk37KSmsoV47vPpu89WQyqaPWPvwUY8pKmSeoj3k3HrZ7z1bYxkN0X/VYvD4XDGn9Q9D47D4XDGGW7gOByOYeEGjsPhGBZu4DgcjmHhBo7D4RgWbuA4HI5h4QaOw+EYFm7gOByOYeEGjsPhGBTg/99XPU2pxZWdAAAAAElFTkSuQmCC;" vertex="1" parent="1">
          <mxGeometry x="1241" y="-30" width="243" height="42.84" as="geometry" />
        </mxCell>
        <mxCell id="tpbJYBQwwvRPyvvn6ZV0-12" value="" style="shape=image;verticalLabelPosition=bottom;labelBackgroundColor=default;verticalAlign=top;aspect=fixed;imageAspect=0;image=data:image/png,iVBORw0KGgoAAAANSUhEUgAAAaYAAAAtCAYAAADlcc+sAAAAAXNSR0IArs4c6QAAAARnQU1BAACxjwv8YQUAAAAJcEhZcwAADsMAAA7DAcdvqGQAABGLSURBVHhe7Z0BbBNXmsf/e1epVG0aTl2do1aqI+ojHEsd1CvJbZcl14Sm7SoJByHt3YFCFQq33ZD22gDqBtIuCVCaBI5N6GkJ0IO01e4lgZ6d3nIJPYhRRdeOjmJXoJgVyEZQ2RXoPHcgG1Hp3ZuZl8RxZuyZCbGn+P2kF795duyZ9773fd9773szPyAUcDgcDodjEv6EvXI4HA6HYwq4YeJwOByOqeCGicPhcDimghsmDofD4ZgKbpg4HA6HYyq4YeJwOByOqeCGicPhcDimghsmDofD4ZgKbpg4HA6HYyq4YeJwOByOqeCGicPhcDimghsmDofD4ZgKbpg4HA6HYyq4YeJwOByOqeCGicPhcDimghsmDofD4ZgKcxgmwYP26g1wXmPHOokJAmLfsYN7hWtObFjTBd8tdpylBPs3YOVuH2LsWC+SbLD8JGI+tK/ZiKEr7DibmGZ/S0k2y+506zYmQLjX6s2APBh4gm0MwRE3AlF2qMYDeZg3vwCWB9mxGrdoQ1Y1Abs+w6ZFs1ihDq70YfWCtbA6vsWOZw38/0xxww/X+RA7SMLsfCyca0WuwqnHRtpR8Taw07kJRanq0QzcCsLz3wGkFo15sM+xYNZ9rECFYP9aVAy9gM+6a2BlZXqIfdmK5573YN25AdTOYYXxUNlZW/WfeMF5CDWPszITIlxw4dx1dqDKnyG/cC6sSoIUj5b+ljWyazJdhiD61jyJtY8P4NvWEhj5hhkhA/JgwDDRyvvFBvR8A4TOu+AP06I5RSjJf0B+mxENuOC5bEFJ/U50bK1BgeLJCBh662m0PXEUn9fbWZke5P9feTCMqg//iI9XWlh55hFOtGL1Bx7g/wJwjQRpiRVFpfmYXEtjdWhFVfsn+OAf7chl5WP4PliKau/r+KK7Cua5OhUu92HDWz0IfhfC6Gk/RNGwLipBfo78tkwUgZMeBC0laHivA80rC5Q7oK8LS6uD2PyHDpQ/wsp04UNX2WJsGQGa/+t/qaJgxQkIxzfi6Q4Ljv7HJthNowniEeB6vx4dXwqsT9EiSwFKfpQnvz1GaBSuC2FYl+/AoT0NKFKsM239LXtk10y6jMniy90ILz+EPx6pMU2dZUQeRMNkjAA5siyH5OTkkMbfR1hZPBHi3VctvW9b5yAhVhpP9GQTsdmayPBNVqCT6JkWsph+v/gbi/d5WakG7oRI6DrLayRyVekKNEDPUTy/nGVHaI0pEBkkTTb5Gqr/VeETN4fp+zaVOjYpl46QCqldGsmgomh4SecK8X0bqTumVK9Utuj7ivWhkcBvV8n1TlPyupN/q0yP/GSEKBneKl+PmqyHjjUSm3jNpW3EG2WFcejub1kju5nXZeSmm7T8RD6HnJ90kulIYzQSIqOeYTLsGiZuf4hEFGTBEGmUB+NrTIIfvpNipgT2gkTbKJILe+XLqKK58O/a0euTSycIondfF/I2vIwSQ0N9Hw5sdeF+5gl7b+pYhfiqB39xkHoAmvGg+y976F/9+M4OSa+WH89Tno7KLceyV+Xs0EEnvaoEHizByxvy0N3RM/U9kyL4fXCJmVI7lEXDjqoaSTLQt7t3ynXFTnWj9UQtaiuNTOBRbgyha1cIRcxxDd1KJhtWLHulFp69PRi6wYqmRRhO6oU7Re/7rnIRvlNybsn8uXImAcvyl1ArZkZa0XNKkMom0N/fskZ2M67LaF0fboLr/iJ2EDOwpirAP9COtX/9JH66irb/GR98X/kw+JtGrP6bJ7Gorh3OC4kyoY90yoNxw3TBjW7x1V6OhUrz9yKREG0yES9it6XMBCO9VPmUYF2lsWFv8HALHD/bg+afsUFhOEKbxmyE4fd4pdxLY1rSAPZnX0LhSCccp42GAKQX/1lJMlD43EJlAaYIN2TJmNoJwxg43IXwGzUGp/BicO1txP+8uwevz5dLguHkViJ3SRXWh7vRfZyd0zS5fSuC23c7GOeKH26pN69HyVMqc47CRB+YYox197cskt0M6zJc7kHLseex593n2RRXGBE9yuyWHz2/WIotF4uwc/hrjHy2DzveaEADTc17PsbAH77G528Xwr9tMdYe9hsweiLplQfDhmnMeuJZO5T9N3opF920GUWqkP+olBnHc7Ib4WSCkAzRI95bgOaf2zHPWszKVKKvMklsFOc+FTNVWDhXbQHDB/eAnCt/tQqKTW4vRpUljJ4vTe13Muj1HJdzap59vJBjef5k43XtNBy0ztY/s9DY4q/vAFovbMI7y+3Ie0IuSjmazi1E8XLq5Z3w0DMzJ8J5N5xiRm0UKnLRC4eUsaDQOnkWX3d/yyLZzaguE9em9rWjYGsD7E/kQ9ZmIQg3pYwGqCO2ayVcpf3obyyBRaWpcueWY9O/fYYXzmxE11cGNGWa5cGgYZpQLOoKJIzTA1JXguWNdah8TMoyxAugKiCJIKgje8R4b7M0bJ71IFsEvhQyn1L52oNe8bW0HEWTrn+MGDzvv4UttI2sqz/G7lfUxhcFKKykNTrgpjVncq5p8OyZ8REVaMMrlZMWQgWfqIDVplRSEUTPNgeWvVsrGbtZDxXKxSlH0xYUFNHPfkqVj/mG3RJ+n2xy1EehVJZOOuU+8FwzXpoU7GGgv2WN7GZSl9FaPNWGRuzGZjGi+KFcyNosiJDWaeVrAzggOmIr1eo/Hitq3q6B+6PT+meX0iwPxgyT4IVbUizqCiTY34Qm+hnLiztw9O2E0MdwAOfoWZVQD0FFdakjesRX3kHDi/Lv5v6QqTVD87IzS/D8aUlRKM3Jxq640LVmEZYefAANH47gi3+pUlE4IlRgn6CK03cOAdNZ38nIhoWi6tkH0betiX7GgvL3jqI5IcQ/eEFUwHZYE7xSLQjHu9Dz1E6sY66axcJqVMNo2jpH9FUd8IpRb6aDKT+K2ig0NtKFph1UwS5aj/5/lg3zOAb6W9bIbiZ1GW3XA9uDeOefyuUIttzZzElTmC5U45sAnEUqaz5KzJmH4oNe+NmhVtItD8YM09iUwdwlsD4iQBAmUtDnRPfrlVha50Hhln588UkD7IkLgt/4cZq+5D6ktymZR9wYt6/lPlpZUmYUIVMJfhieU1IIAMI7luLhhx+elP58QSV6chvw+WAfdqwskAUzCbKSvYig1msUhtD6t5WoNJq2DRlasxvz7At+bMXsOLkQhCB8A93YULEUaz2FaD76Bfrr7QmdOYyAFLM7Gw/oFY1bLrT9Etj886KJ7/zT++XXMwGpUyVDdnDCCIdMOGQaH4XWYKH1dlydCghfdKHv/dVYVNYN4ZV9GDnWgfLEPVm6+1uGZTedZEyXUW0mrpOv2By3h45+B/OzR6+aqbIyIA8sOk8X3n2L5bDBwjJSsaxicnqtiezvGyajycKxPW3S/7d52LFGQsfqSNkuN5kU/Xi1l6wSzyVnFem9yspSIf4+/R7tuElbThv9q4PoMGmSzquOOJTiS++EyOCvyuj7NlLRkXBNCojhqHrrLBqJkIjRZCjE1Es6WcjrgtIEuaCpfut+0usaJZE77ONTCJHeWvr/tb2KIbnqRIm3o4ys6kv4LyZnOVrajoW4T/kO3YjXoEMWNRD5faN8Hbanp9RpRW0jafnIQbxXkzSY3v5mAtlNF5nSZeSqg9SVUrmcVHlM/un3aZbDe1SXGTBMcZX3W4P7TIw0phQDX0eO+BMU6PkjzDDZSNtZ9tlUpKMx6W9Ie0rUYv5FxhvcRhqHUsT2G+0A6STeSQiyMl0YNEzUqFT/VQsZvp4gG0Ns34Vah4qHnbsmhXAzQNwueZ/I1OQgLVSptRxTek9O7qA+q+/eZZOvY7suCZxAr+xkWHajQbdivaVMnkBKpTiZDOkyepbDW22k7iPqpMXLa2SUHPkH+XxsHRp3Mom/fw/qMv1TeeNzsoUonq8+k5iU7/SuBsXg+00rnI9/i77Nq7F6TVxq6mHRMnRcaKL75Y3Pyf5UPWQas+Zh4XIxE0b3Wb2zvuZjfH3JXowCQ7f4oXKhuw3DcO5qRzDPg461CbLxa3ElS+T23Q/fThsT60vrnyqQXnWjs79ljexmRJdRKf+qC60DVnzbv3GyvK7ZiJ7z8mfCBr53psiIPDADpZ2x3b82nVY3Hr1ehugRl6rthvaSNrbb2DzD3wlPrOlkMh/OTVrEuqQp1Z0rvg9Tee7t8rXYdNVtPPpHTGK9LHhzkCj6aCEHqWP1m7LezDqVFzQwVZ2Irv5mDtlNC5nQZeJdJlaUkU6VKvN2sNGx1j5wj+oy3SOm8Zj/ykIY9N/GAxa8mlZDw+jbdgDFu9Ypx8XTb8p/hmW1ehmP5qMqGNK+uH8tCG/ifptkjHtiyWL+qed0yoEeKVeOdS8qX90Y8obUQsxi6/kpEYbQPskb05ne1xv8QD17tn9pmd2wZOB+8fo+DbDNjCmIedDVHMQ7jSyqKRFLHuaxbMq7z98IS3eryHtQ/yL2TDK+f0kchSqG6WpAT38zg+ymifTrMqrN+rfgQNFE5GgilrF9mVReTTFmypA86DRMQZw7wbaZPVOYMvpClUcLsIS+CBpuIyQcb0fLI81Yr+FuvU6tYT+PlaN21gF0j2hp+hg8h/cj7+/K2bSQBsYifVRj/ilX+lC/vouaXQtqPtytfPfrOMJhsTGpctJqHXPL0fzvAxgwmt5VUfZqXD6HISlyrArFdqOSQZ2MArGWI4hqaBrfoSYM/v1m1GhQ2P5ryWVDuC6+XwjrY4alegaI4dwZ+S4alspiFcdMAzr6mylkNy2kX5eJNwZo356H5lfjIkfVGEgdSZoWMiQP2gwTHYlIIZS+QTile0oBBbmzpDJDz0Gy5GMh7WWuSwFlr0D6vTB81LtY/Xo38q2zERMUPnlLDOuk5WNSdSOEsHieKWUkF+WtzcC2GrSeCKt7JoIffZsr0HTfTmxn+6aSIT77Rzxv1xDb6PhkXkLItJiC8Hy8BZVla9EXLsL6Tz7HoZSb4wSELtFOlGzXf6aQ2kCA76RTvj8e9T1zHxLLUjaCItb5y+hfH4LfyMdTEJ9XQ+vQ9evVWPVLD+ZZchWfXyO1BW2EWaXysUBHRMnkNXjZTf8ugd3ILsm7Dutv4dMY+p1cUixep1hmpFpT9TdK1shuunUZRazbsK8PW9bUozvfitnfKeyrY+cVw2xWEEYoLNa5sX40XTIuD2xKLwkh4lgnzx0qJeW7Q6ciSoZ/ZVO9i+54CGd8srUlfHZibWlKUrkD8BTuhMjw3jrydHE1adzeSY445egex0edpOXNarKgcBVpc45qi/Q5yyJXNKQFpatI414H8Wq+w7lbutbFe5PP3aaduDWcqUlDJJwS4noi/X+1uzwPvqnwW4ntneS8lKOd2Dz6aw7ltSpdTH+NaXydQSFpjtaaRPL+lj2ym35dRryd409AmEhTI4jV2zxFP5qJNSYTyMM0HnsxPaKuFnrxFeTIJVaQSe5EScA7TAb79pPOvftJ79Aw8eoM6Z1RJOFerLpgem8hP4YiZ+uwNofgbhAZJI20k9U7p2+W7oZhmgky1t+yQHYzqsuue8mwX09PiRLvkPsuOGAG0SgPGTNM9AylzZimGwWYEO9eOoJckWQPwT1GxFlPvbF64tDshU0P6fdsLWT4rlhC6pW/Rs/diPM9o2Smv2WH7HJdphWt8pBBwyTvaJ/Ww7WyAfZwreShmvcatKOXTu9BgdqZ/kMJvy+kvb9lkexyXaYBHfKQUcMkz/navgdPD80c3n1lxJbOaS2TED3bRspsjWRwhkdNkkLJmtFoevtbdsku12Wp0CMPGTZMlJtu0lZaRto82aZ6UxP1UOUs3k8rS72wQF8dWbCud+aMRrCX1BXWGbx90veUNPW3rJRdrstU0SsPmTdMIhHaoCvqicNkC8YZ5aqD1Nd2Em+WTw0E+upJdYf37nvdUS9pq6UjsmwySmPMdH/LZtnlumwqBuThB+IfFjnO4XA4HE7GMfY8Jg6Hw+FwZghumDgcDodjKrhh4nA4HI6JAP4fsS+xpP6Qn+YAAAAASUVORK5CYII=;" vertex="1" parent="1">
          <mxGeometry x="1241" y="70" width="332.5" height="35.46" as="geometry" />
        </mxCell>
        <mxCell id="tpbJYBQwwvRPyvvn6ZV0-13" value="&lt;b&gt;Regla de la multiplicación (Regla del &quot;y&quot;)&lt;/b&gt;" style="text;html=1;align=center;verticalAlign=middle;whiteSpace=wrap;rounded=0;" vertex="1" parent="1">
          <mxGeometry x="75" y="160" width="120" height="30" as="geometry" />
        </mxCell>
        <mxCell id="tpbJYBQwwvRPyvvn6ZV0-14" value="Esta regla se utiliza para calcular la probabilidad de que ocurran &lt;strong&gt;dos eventos simultáneamente&lt;/strong&gt;. De nuevo, hay dos versiones, dependiendo de si los eventos son dependientes o independientes." style="text;html=1;align=left;verticalAlign=middle;whiteSpace=wrap;rounded=0;" vertex="1" parent="1">
          <mxGeometry x="210" y="160" width="440" height="30" as="geometry" />
        </mxCell>
        <mxCell id="tpbJYBQwwvRPyvvn6ZV0-15" value="" style="shape=curlyBracket;whiteSpace=wrap;html=1;rounded=1;labelPosition=left;verticalLabelPosition=middle;align=right;verticalAlign=middle;" vertex="1" parent="1">
          <mxGeometry x="660" y="115" width="20" height="175" as="geometry" />
        </mxCell>
        <mxCell id="tpbJYBQwwvRPyvvn6ZV0-16" value="&lt;h4&gt;&lt;strong&gt;Para eventos independientes&lt;/strong&gt;:&lt;/h4&gt;&lt;p&gt;Dos eventos son &lt;strong&gt;independientes&lt;/strong&gt; si la ocurrencia de uno no afecta la probabilidad de que ocurra el otro. En este caso, la probabilidad de que ambos eventos ocurran es el producto de sus probabilidades individuales.&lt;/p&gt;" style="text;html=1;align=left;verticalAlign=middle;whiteSpace=wrap;rounded=0;" vertex="1" parent="1">
          <mxGeometry x="680" y="140" width="540" height="30" as="geometry" />
        </mxCell>
        <mxCell id="tpbJYBQwwvRPyvvn6ZV0-17" value="&lt;h4&gt;&lt;strong&gt;Para eventos dependientes&lt;/strong&gt;:&lt;/h4&gt;&lt;p&gt;Si los eventos son &lt;strong&gt;dependientes&lt;/strong&gt;, la probabilidad de que ambos eventos ocurran se calcula multiplicando la probabilidad del primer evento por la probabilidad condicional del segundo evento dado que el primero ya ocurrió.&lt;/p&gt;" style="text;html=1;align=left;verticalAlign=middle;whiteSpace=wrap;rounded=0;" vertex="1" parent="1">
          <mxGeometry x="680" y="240" width="530" height="30" as="geometry" />
        </mxCell>
        <mxCell id="tpbJYBQwwvRPyvvn6ZV0-18" value="" style="endArrow=classic;html=1;rounded=0;entryX=0.1;entryY=0.5;entryDx=0;entryDy=0;entryPerimeter=0;exitX=1;exitY=0.25;exitDx=0;exitDy=0;" edge="1" parent="1" source="tpbJYBQwwvRPyvvn6ZV0-14" target="tpbJYBQwwvRPyvvn6ZV0-15">
          <mxGeometry width="50" height="50" relative="1" as="geometry">
            <mxPoint x="580" y="290" as="sourcePoint" />
            <mxPoint x="630" y="240" as="targetPoint" />
          </mxGeometry>
        </mxCell>
        <mxCell id="tpbJYBQwwvRPyvvn6ZV0-19" value="&lt;strong&gt;Regla de la probabilidad complementaria&lt;/strong&gt;" style="text;html=1;align=center;verticalAlign=middle;whiteSpace=wrap;rounded=0;" vertex="1" parent="1">
          <mxGeometry x="80" y="248.05" width="110" height="30" as="geometry" />
        </mxCell>
        <mxCell id="tpbJYBQwwvRPyvvn6ZV0-20" value="" style="shape=image;verticalLabelPosition=bottom;labelBackgroundColor=default;verticalAlign=top;aspect=fixed;imageAspect=0;image=data:image/png,iVBORw0KGgoAAAANSUhEUgAAASAAAAAtCAYAAAAOarbqAAAAAXNSR0IArs4c6QAAAARnQU1BAACxjwv8YQUAAAAJcEhZcwAADsMAAA7DAcdvqGQAAA8jSURBVHhe7Z0PbBRVHse/d2diidRy8XLb3CVugxtKONxynrSnIj1b7KHpn0MKXkJTSWs5tVSjFaOFqsCB0BYOW7xoAZWqUbtFb7cc2IrQbQy62xyyayBdLphdImbXSG73DrJLNHn3ZuZ1225ndmemtLPI+yTDvnkz25333u/3e7/3e+8NPyEUcDgcjgH8lH1yOBzOtMMNEIfDMQxugDgcjmFwA8ThcAyDGyAOh2MY3ABxOBzD4AaIw+EYBjdAHA7HMLgB4nA4hsENEIfDMQxugDgcjmFwA8ThcAyDGyAOh2MYxhmgiButy9fCcZ6dayQWiSD2Azv5sXDegbUPdcB7iZ1fowR61qJyhxcxdq4VUTZYehwxL1ofehr959j5tcQk9S0lOmVX5es4YggMueCPslMlZmRj7rxcmG5g50pcopVR3gRsO4h1CzNYpgbO2VA1vxZm+7fYco+O708VF3xwngqykyTMysGCOWZkyTx6bKgVpc8CWx3rkJ+qHtOBSwG4/+VHatGYC+tsEzKuYxkKBHpqUdq/FAc7V8DM8rQQ+2wz7v2jG3Une1E9m2WOhcpObflHWOrYhxU3s7w0JHLaiZPfsRNFfo6cvDkwywnSWNTom0Gyq9IABWB7bC26vgGCp5zwhWjW7HwU5syQLjOififcX5lQWL8VbRtWIFf2ISLof+p2tNxyAEfqrSxPC9L3K/eGUP76v/F2pYnlG0/k482oesUN/M8P51CA5piRX5SD8bU0UodmlLe+g1f+YkUWyx/B+8oSLPc8jk87y5E+pVPgKxvWPtWFwA9BDA/6IIiGeWEhcjKlyxJR+I+6ETAVouGlNjRX5kJWDbwdWLI8gGc+b0PJTSxPE150FC/C+iGg+ZP/UmVj2QlEDj+N29tMOPDPdbCm0F1jiMC5vR5tn0WYTtEsUy4Kf5MtXR4hOAzn6RDMy7Zg384G5MvWmTp9M0x2BQOkHj/ZX5FJMjMzSeOhMMsbS5h4di8Xr1vq7CTIcscSPdpELJYmMnCRZWgkenwTWUT/vvAbi3Z7WK4+ouEgGXYPkAHnAHH5giQcZRcmC31G4fkyK/bTGpMh3EeaLFIZlr8hc8fFAXrdolDHacrZ/aRUbJdG0icrGh7S/oBw3UJqPpCTDCpb9LpsfajE/+4qqd7pkbzupN8qnqT8TD1RMrBBKo+SrAc/aCQWocxFLcQjI7+a9W2aZVdbDCjig/eokCiENTfR9glkwVr2IMppKvReK7q9Uu4oAXTv7kD22gdRqGt44cWeDU5cz3o2z0U9UYIIfL2tqP39rbh71WZ0HffC+4UXfa82ouoPt2JhTSscpyPsXn14T/SLn6Y75soPI7JKUPGwlOzf66ClSuCGQjy4NhudbV0Tr6UpEZ8XTiFRZIW8aFhRvkKUDNh2dE8oV+xYJzZ/XI3qMj0DL8qFfnRsCyKfdfLBS8lkw4yK1dVw7+pC/wWWlZacgfeYlFo8b46USMC0bCWqhcQQleVjiXKrXd+mW3a1GaDTLnQKn9YSLJAbXwuEg7TYAh7ELouJUYa6qZAVoq5Mz9CLVuebm2C/fyea72fOXShMzYkGLvnQ9dgSrD+Tj60DX2Lo4G5seaIBDfRo3vk2ej//EkeezYNv4yLUvunTGQQNwef2iKmVI9qgA+s9K5E31A77oN5Q7PTiOyFKBvLuXSAvuJTIBUky4I0l1G0IvW92IPTECp1Drxicuxrxnxd24vF5Uk4gJAwGlclaXI41oU50HmbPlI6c88ElavEaFN6mMFaMjOrABKOrWd+mX3Y1GaAR64h7rJC3x7QIZ1zU9AiUI+dXYiKO+2gnQsmMVzKEHm5XLpofsWKuuYDlKcx2yEKFdFslnEU96GkshEmhPbPmlGDd+wex9PjT6PhCh/LHhnHyQyFRjgVzlAIMXrh6pVTJw+WQbWprAcpNIXR9djX4QLQ8h6WUUk89VrixLGe8kTo/CDutszV3LpCPDaXCuwebT6/D88usyL5FykrpHWfloWAZ7cU/dtMn00DMi87t/ayTTU7gcCu6vmAnOoiccsEhJJS8SoEzHtjFhAl55vFRF836ZoDsajBAowKkLCghDPaKVQbTE3Uo+7WYZAgPTps6ifFSRurh8NIzoiuZcQMLxp0Nqhee873YIwhppRoX34wVz66A661BbR6WwJdudAufRSXIH1f+EWJwb38K62nbmKvexo7VSs+Ti7wyWqO9LlWurKGcV9FTMyMjKErD6rJxAcqIV1A0pWF9KgLo2mhHxQvVolHLmJknZaf0jk3Izaf3fkg7TC2NnGHFH295H5WPOZIaIXE278McFP6WZejA55VMi7JXSWXpqEPSgXubsXJc0F2Hvhkgu+oNUMQDlyhAyoIS6GlCE73HdN8WHHi2cLyRCvlxkj5N4S052ns5oYc79zwa7pN+N+sXTHwnuPJJ+MYPR77CuFaO2XNRsNcDHztVS+DUoCgQcmPo2DknOh5aiCV7Z6Dh9SF8+vfyJM+TRXtzqiDek/CrtrLGIBkQimJPHYBtYxO9x4SSlw6gOWHpROC0oGhWmBM8ZjVEDneg67atqGNdscnEalSFd2yeLXjSdniEWSYNmCv3oWexHaVrbLJGaLJLCSSYAaEoeZWxoQ40baFOwcI16PmbZIDj6NA3I2RXvQEacfXmLIb5pggikdEj4HWg8/EyLKlxI299Dz59pwHWxKDXNz4M0o+smVrND+vhGsc05nVC/yUwjGBaKWcI7mNiKBahLUtw4403jjt+Ob8MXVkNONJnw5bK3AlTmIlIynQGAbVljPRj85/KUKb32Niv3eOjjPTUuXeYMWuMXEQiAXh7O7G2dAlq3XloPvApeuqtCQoRgl9c1zELM7SKxiUnWp4Dnnkkf/Rv/ux66fO4X/IMkiB1ZCGEgtpLbf7zPhws+miCEboyxocS9ypXYIH58pg6jSB0xgnb9iosLO5EZPVuDH3QhpLENU2a9c0g2WWzYSnx7F4kTc/lFZPSitLxx6NN5DXbABn+jt0sh7tF/H6Lm52rJPhBDSne5iLjZhi/7iarhGfJXEW6v2Z5qRB+n/4d9bhIS2YL/VcD0QHSJD5XDbHLzTR/HyR9LxbT6xZS2pZQJhmEKVStdRYNh0lY76FrGYKHtN8lTcvOL0qQC3rUb3iNdDuHSfh7dvsEgqS7mn6/ult22YYyUeJpKyarbAnfYnKWqabt2NKBCX9DA/53a8j8um5xytpvY2nFsqonfKhRKofl9gl1WlrdSDa9ZSeer5M0mFZ9M0h2VRogJiRCY72rc52GHgMkrimoIft9CYpyaj8zQBbScoLdm4rpMED0N8Q1GUprKATiDW0hjf0p1kroqbPpZmxnEGB5mtBpgKjxWP67TWTguwTZ6GfrWJQUaSzs2SdjgARDOPwGNTx586+Y8RFwbbNI5firJgkcRavsGCS76oZg8fhPHgrm6XQsf9A6oxSD99XNcNz8LWzPVKHqoTFHUxebaaP+XRrtB4uPoe9WnopGxlwsWCYkQug8oTXClH7E4z/WAuTq2tpA5UJzG4bg2NaKQLYbbbUJsvGyEGkSuIzLV+1ewdH4z5rbcsVPzWjUN6NkV50BGln/YypHgd7lAddpHOB/1Y1Nhyrwzie96P1H4rET1SwO7VEdIJlqRsfQK29LNu8QwLBozKk5TzE+j10Ms5R6hI2YY+MFmg6tfQRlZP2PqaxAfko2JbQOUuwPSyR2rB3rZ+7AkYMysrGvGYvFuxzwfyMmlLkc1RXzGkvgvXpUHl+Kgye/xMGSj1D6mA2ByRq++PofQd9SRVsU0KRvxsmuKgMUX/9Tlged9jgeOFZnMEKwbdyDgm11CkJtQs6dLKnZs5oi4l5isjUUgvLY0SWmSlB3X3KVlRbu5SGDxVVTEulH61hvQOuxXWsQmvbUbP1PhVW3ZOB6oXwf+mVnlCYQc6OjOYDnG0vkA6GmbMxlyZRvS7gQEldvZ9+gRVlHCbxXi9KjowFnYXYsboSkW3QRX/8jeJWy0+Eq0KJvRsouG4olYXT/16TGykE7qaF/o1TFXh8hADf/yT6iPMocjUmpjusIY9KpjAGpGUMHukmNuI/GQmpsqetBCvwr7K1KB+L7vzRMBsjgaRPiHU1kQEUQ3LO7OMUeLqHdJNlIJa9SoHcRadexJWxs8DmReDCanWtjdP+XRZO8JqBB34yUXWUPiHoWolvu7YND3P8F5GZliHm63sNjysECajSdZ/3y6zPE3wvB27MeVY93Isc8iw4nZO68JAwXaP5I93chiJDO4cOVQBry0J60ny0IuzU7YSpaOAJwv70eZcW1sIXyseadI9iXckFkBMGznuSrYI1CbIMIvEcd0v4v6hdnzRTy9DWCeV4F/deLgNKQKSbVofPlKqx6zo25pixEZN47I7YFbYSMIuk8Qj2cZPIa+MpF/10Mq8aVscJUe+VgheJUe9wTUlgnJA/Tt9Ag+t+TcgqEcgp5eqo1lb5R0kJ2mSFKIEjsdZIVljvkdzOnglr2F2lPd1c7ketw4tP8Yw9LS8K9HtLCduJOOBR238eZCg/oBOs5VBzzi1aRxl124km2VGEc9PdpWRft0tE9TyWsZ5Uro6qZJzmEGS36faU3LPQ9KfNbie2d5LksbXJ1yLzoR+1JPG0ZwgOkfVufKu/Gf6iF7Fc5Syt5gROfXTjknz8VyfUtXWRX4+s4JkfUuYkWupTsP8syppPvPGTAp2WhS5R4+l3ahPNK4mkni3QOD64+pNdjZG4YoLU+TYT7SCNVrnpHuo5vJ49h+qZBdqfVAAkejLBoLe169TTEs4t6hA8kGZP/yAg76mlvW0/sqnvZySH+nmWTqrjT1Ysx+qZFdqfZANGGP9Q4qReSXROwlzo1Hf1Ra0cCVFmKJvdCMvVM/uVnVwvTrm8aZXfaDZAUX7JcBW+jMw5hpscyncORNCF6ooUUWxpJ3xR7QaJSXjPe5fTqm1bZNcAAUS66SEtRMWlxX2sqlpqomyphUQtxXaMe4uSmsFUgTCfn1ejcNnKVMk36pkd2jTFAAmFaKQ/QMf8k1o/86PjaTuqr24nnGh+e+m31ZHmb58p7gFEPaammHta1ZHxGmGp90ym7Kv9XDA6Hw7nyqH8fEIfD4VxhuAHicDiGwQ0Qh8MxDG6AOByOYXADxOFwDIMbIA6HYxDA/wFtR4RidsZvcwAAAABJRU5ErkJggg==;" vertex="1" parent="1">
          <mxGeometry x="1230" y="150" width="178" height="27.81" as="geometry" />
        </mxCell>
        <mxCell id="tpbJYBQwwvRPyvvn6ZV0-21" value="" style="shape=image;verticalLabelPosition=bottom;labelBackgroundColor=default;verticalAlign=top;aspect=fixed;imageAspect=0;image=data:image/png,iVBORw0KGgoAAAANSUhEUgAAAT0AAAAkCAYAAAD7Ne16AAAAAXNSR0IArs4c6QAAAARnQU1BAACxjwv8YQUAAAAJcEhZcwAADsMAAA7DAcdvqGQAABIOSURBVHhe7Z0PUFRHnse/d2dVxlKCe3t1Q91eBUqnxDPuQHIRLonrlKKoe/xZV9C6kiIpCVQSgZwibgRxV1BDgLgGcG8X40bm4iUC6jJ4urAGGc5KMsOdOpOKxXilxVgxNZOK5UxOi7HWqnfd7zUwf96bP48ZQHmfqpb3et44/bp//etf//r3+v0FR4CCgoLCLOEv2V8FBQWFWYGi9BQUFGYVitJTUFCYVShKT0FBYVahKD0FBYVZhaL0FBQUZhWK0lNQUJhVKEpPQUFhVqEoPQUFhVnFlCk99+eNyHvTACc7jxSP2w3PI3byhOA8W4qCo1Z42Plsxd5Virz3ZNbDIw/cbolv3jGg9JUWWB+w89mE24zGTaUw3GHnU83VFiwnbRoreH3Ajn3wWNH4yi703WbnIog/hvbADvP/jGCUnUoxN2EJtAvVUM1hGRJ4hhqR9TZwyFCJtHksMxJud6JgWRESu7/FwVUqljn9uG8Ycc3BToLwg6RULH4mHoEl98D8bhaqcAjnfpEm8vkM5K4Nxq9C37T0Pfti7ypCVt96nGvLRyLLCx9SfwfXYs1QMb78Q6Ho9ycte1OCB/YhE0ZCdzgsWZoMdaj7eEAUXk4VUH8OlcvFW2DyshsCUu9P9+vwPZHraOP5vA5r15lRfK0HhQtZpjdEXxTl/BHrDceR/wzL80Jc6d3qROlOPeyPHBgetPHWWeJyHZLihI8FRjHSb4ZdrUPZO02oyUsWr5i7fdj1Tw1IPH0RZVqWFxFu9O18AXkfOJHz+//FR3lqlj/dkHLtL0DLVVITI0aYb5GshWnQJc0VPh5jrA4X5qDpw6MoeS6efTCGFS0Zm3Ct9DKOb5wp9yaNe7AR2w8Pwv1/IzAO2UmOGskrlyDBe+DzuueD/3YUZS/63zPD2oI1m+zY/UUTMn/I8iKBfn9FNcyowcXviVJj2f5Yj67BJks5LrflkNLOROzofLMU+m8Ax1dG2GiHE5ElQc7U0G0/hKa9+UgWVX5Cf2lYdBoXt0t1uGjJbhBipvRof1mB6iGg5tPviVJn2X64L+zCC01qnP7PSmj9FRNVepLcbOey4uK4uLgKrtfF8rxxWbjmn9PPNdy2Mw6W6c0oN7BXw2n2DpAjeYx+Vsut4MsQx61otbBcOYxyLscwZzIOcANGEzfscMkukz+mA0L5sj4cYTm+uPqqOA1/D5u49pss04vRfvK5htTxdyzjMYCWmd5z3MvNnGirOLq5Cg295wyu4YpYTY9w7UR2NknUWWhGuI5Cod4l5XOM+wNclUbDVZwPdtFMgNRJrnBP4mV1cZbWTfznmuJuTrTH8bJUxQ3cZxkhmKzsSmJu4OLqTewkeox8vJUvr3QdjSHIV4aIzgjq03PbrDDSg9VaJIsp+XgtcvJzyIETne91EB3sx60OtLyfgPJ8ncypmxXH9hrxFNPmlvsyvD5uGwzvFmF56k9QsF8P01UrrFd7cWx3AX6SuhxF7xpgc7NrZWGF6QL9q8bKZ8UnaPFrc1HCH/Xh2IVAP4dq1RaUq9vQ8EnsfCDR5sb1QeFglRaLhSNf1DnY/Co9MKPu34llyGdO4LnUhro/FaIwO/JJLcV9oQW1X6chhT9zwH2fPxBnng5bShPQ1qQPlNGZBJFVaz890EEr3uGgzd4Cvsd90oiOgJuxo6O1BQmlW6ALayo/edmdUsissaXegTRmwDoeBNMHich9tRDmI3r03WVZjKBKz3aljf+bsjZV0t/ivkunOASrJ8CxaO6sQ9/qYuTImtaSJjxRi+6fHkbNT9mkxOkK6DzB8NzQo3RdNWwvHsJ/XRtCz28OouytMpJq0NTeg6H/vojdz9tQrSuC/oYMhUq5Y4OJl4XNSPsxnyMDLXT/kkIaqBtGmcWYWuywfWbhj0peSpUY0NxwjQnbXX+nsxM9J1rgfCtf3rT2gRENe+7hYFM5U7h2OPwE2x/tqs1IGWpG9+AMruDrJvA9TpuJVDFfFcXlIHdLscDzkD+YYKiDDCQ6FGeH2eGiIrtThQfGIxW498vDKF8q5NidwZdF41fmoMTZhrYLTEcxgii9sVEAWLlUdCwnOGEzC8KPjUl+itEM4wfOoAozKFSrH0lGzetaLElMZ3kSKzZikI5Rt9kIXUcXKleqxTvmnHgkr61El2E9jDtbqN6OGM+NazDQg42pWCJlzlpNwjXIRPEGcYHUpuVA7dTD/CXLmMkQi8TUQw+kLBKKDRb+GmJHLE309aXdGUT32WAKMzjWE3Ww/es+5DyXgCV8jogC8Eebjhy1E/rPI7NWPFfb0OjXacSxo+9dYklOIsLAeqVPOJCyngnOGyZyt5QcJP0dfzCOub8NzmAK049oye6UYD2GuuuV2LdRi4RFQlbImV98CtI3Ehv1T2afqBFppTc+CpRA97xEjTDhpeZx2avZvoJNK4v8krTCDIag1fHObt5MV81LELJvOnwKHwznhWOw7donunoTwDP52Jdngv5S5PNcq7mD/6tbleZ7/2PQlbQd1URQE1HY/p74ahNlcQpyyd0ZzNM8hQiHGxZ0079BOphnyMi3P+0sNfm+zmw335GCKcwg3NKj9kwu9r1Kh1IVVKwfOr8L1XbJSMkm1/WYIpriqp5bh6SzeSg9G0zx2dFZkoVTi8g9hYhkkGbCgJAeDJwY7BFUkPqtYmT/iD9kECOlh1R4EIXpT9RkN+bYod/fjdxfCiv0qvmCUyP0zE+N5DRy7VkyUHhdKKn0BMEkSPnzaEPvryLXqJH5zmnU+IWSOG9eI5WlQ3KijLGcavXb+1C2Qfjh+L9hTSIyhZbCftOA9OTwbczEZ9PRZrWxs3CxY/hz2rNFfCKPPLAPtqDg5TVom1uG419cRuvGIOWJT0Ai6cAWy0jYin26sJpZvKVUByOdpeXtOtL+aSg5FdhZ7NepytQi0c9SCY0bfa16pBwoJt+mqMdH/eD+HUo8uZZ0AOs1jERUwYnI/00XdBeyUNQlpvgEhffHzHM4nhe+vAXgtsDEGxDSg4G9qwpV5Br1hoM4/bafn9w5gmtEm+sWJYVpPUdRdmMM9d/qnz+EYjbAqdWsLGHM/BIX0lliNyx0hZohqfRsVn4sR/KLiVjgdsM9nuyw9rShNGsNiswpqDl9GV3btQEV7bxFHd3xmPuUcB4+TKtXeMVtkdFTUHvDcMwkjXDHjD7e8exEXcbTePppr/TXf4sfZ+mx4I2LuNh1EPlLQ1k1rANft4ev9K7rUfCzbGTLTAUnIlXylAmLJP/ZJDz0lg2nDcauRqGzPChE6xen0bTBv7M4McLHZCzA3AjHQ8+lBlRgN8pfnPjiU0y+TPbQtSZ0lhsI41Jf5lDFdw7r+/wVX5QUHmXMel68Eok/9KpTkuxWA9rKs7Fmmxkp1V24fLIMWv+Fim9s4Hvc/DArNaqyG0N4/y2w+3WvONa/Yo3+WWgDQTCYnHA6vEw9torrh4VrfllYFl62OovLyvVN2/f+juswDnOuP7PLRTDV0+83cJEuWjvObOMy6k2+4SRfd3Bb+WXqrVzH1ywvBPT3G8zsJBxkLLGPh21IhA9wjl6udjX5XJNFyhIqQIaG90ReZ6MuF+eSmUaDtJ8krl6ugm8LDffCP/vLxlau4kA7121xBAkHcgihJoUd4nUmxaiFa1gd2P6CnJEURtuNtVdEcuHNn0e4juJl3LZOGt7Bjj+WG3Lji6V1hXAfKRl+dUrSG1Xc7zoHuOFgIU1UfiO4t+jKrghRCVkZ5SxNGdzWTr8SsnsNq6+wsDvv/0Nc6XkrGTvLixBZSo+Pp9rGtdv8OuhX7aw8Gq7hCrs2BFOh9Ez1Gr7ypWKcKOPCRePwQoSJyR0ophRST0LcVq3McspTeiMfbuJeODDgKxck9f6KloUkqc7rTYSKQZT7w1w7UXbLUqKn8MbrhJRtq9z/M8J7i7bsBiCjPwVAFNamf6zlBr7zbXNXX61QrrhtXHeoRme6zFvpiU5vx/152nQkh7MQIEbEq1geWH9bB8Mz36JzdwEKXvFKVXq2YkWM2Rnz/K2XTyRFemqjWpzKx1XB2QbLDT7rsWbcn/cakQ0+J1I8kbfhHQNqj9iRMNTkKxcktVxg/t6HoZZvZzDj/rwUpC+VOU1+FK63m/I4yK4ThvpG2BPMaCrybfOC9+lKAuUhHsrQB6JKbyw+T52dzhzGMoh0FetWB2rP5+Lkpz3o+YN/OoxCJtuWiB0yMWLcJ7IZaf/A54hze5gt+adAFdS/6cFosABbCeiD197+n0hS5Bs4TMTn5byUAnmeHlWEsuGB8bfV+ME7F0Xkogcf/GKlcNnZEVK64Hjuu9iRTB7Z0bkjD8bMc/jy2jms789C0SfhhLOEYCw+T52DdLkdbk4EDtKoy2708VxqRvX893DxXGCb9xyvgdDqBox8wx9I83A0YIVXROlNxOflauWN5RTVHKqlLLCHtcuDE537jyG9fmxVzh81kl5ihxGNaLFj3BoOFuNEO+x5vXC4NlSQthvf0p0htKowV98I1/V4zXsEjDC99lGECxnj8XnEIlnMRiEZ8IsPYSgpimeoBXtv70MlW8n3R/33QqQeretQCIH0MjswVXhvei9aJCK/jSk+0VXd8BmPz8tOkWk9E9hiXzhGQfRlN8p4zGipsWNfRab4wKoei88kl4YauO86+afKEuZ53Sib5k4w/rxt+IsGYtAFibi4rLCe13Odr+CW7ejlpN0GEz6PcP0EsfbpheMTGencJvi/NNvC8I2yxaOg9TC9TPh4Jud3tDTRuqviBkL6x0mdrM7gmoM9cs18WeHIq7BYIMM/5bOA4U+wz8Jh4nnbAId9JDi6uW0h5HGM6MuuCJPw6VlaM0SfmZ3AxDXwbR66zqhuiYtb4SNDE5beA2HKY+03CM/bkjEnfj7Nk2dZqRelkjHVCJtd4vv8PmhOWLuqUVDehqTEBWSqJnItXy6SP6by7zrgpNMzecWaJLTM5LedRvTSQFCCVr1AyPNOt83Q76EhBp1wLi/BR5+Kb3Hjg9sBO42zItb1NAYIiCJMoZ0Y7BeCWZGmRjyfJ68REpfmkn+tsEtMTfjfu21EyytbUT20BAkLxKbiQls4H6mg48/duPdtsDK54bhJpuaScadSUAuPTGk3SIWlMIsvIJwlBLz8k/Jae2Hgp5qkx8Wr+DxZ+0aqk5BKrDHjzREJmzeGshsNPPT37TC+X4Cte8xYoo6HW2QfRF42SPFVq4VzN7HkaLml6sx+y0T+XQmtd0Apr/rYKCGMmP4pjBUSMUYHuFqN9M4o40v03olYEL5XW7gGfqcOkRRitS4Wlp5goYiUJSAt4zIKK7hmgyVoWI8P5Pc1fiPSjODK2GqtSAporzChq3Lk+6K7ZIyHxPgm/118hJlE4HXSK/zEOqDyeCSyEruMzVzD+XCsuBGut76ds4TV3g6uu1is7EIS37EoFKPcwK+IfErsehNT2RUjIkvPxfXuECmLfx8Poqc0TWJ3zWaIb3T7zJ6Cby01KVgj5LYTcZh6XJYBbjjM7XV47lu4XvP0TSz5QUBqm6YnDmHbn7hJbDkWMZZmbsVMHFSiyKixlgxQ4bmUYs4kprdRgw2g2w2+/VryiYzJQ6YdG8uR0n8Mhml4nDReq5PYZFGCeVpkLp+uiaUVxo8tyHw9R/5q+WOFsO0P3u8M2PYnVlgvdcAy1Q75KUa1MhflWiOO9TwGz29PAe5BA9rUlchf69uvY6j0CNpC1LzmQHOnUcLPoEDxXDqFZmcZyqbx+capJj67BAeX66HviULIRygeGHGq1YGy0s0TjzY+kWhRWF0CR+spGGfje0F8sKP7hB6Z1YXQ+a9QM4svdnxN5uGaECtwsxq6QqnhqvqnbKI3Yxi90sBlTMGO0XQ1cDK7dz9eUH+hJsTq5xQwzdNbumqr+bm4ay22lh7lRzk4+h/r0L2jEeZZP/r4Q18MtBPdmScDdqmZDaieq8Txd+6hYk9nWDF7cqAvBtp5Zh1O+u9K8sSiRs6vT2LdmZ1oHJql86vbndi55x4O/Vr8ZVGxV3oE1fJKnD4ANFTKfwXkk4jz7C40zz/8+LwJLQYk5h3HuUwjKuS+AjIYdwzY1arC4Rn9JrQYMC8NlWcOAfW7pu8VkHNUSI7kKZFoQV8BWWPCFok3oVHE34amoKCg8IQyJZaegoKCwswA+H8h667RiLyBFwAAAABJRU5ErkJggg==;" vertex="1" parent="1">
          <mxGeometry x="1220" y="250" width="247" height="28.05" as="geometry" />
        </mxCell>
        <mxCell id="tpbJYBQwwvRPyvvn6ZV0-22" value="La probabilidad de que un evento no ocurra (el complemento de un evento &lt;span class=&quot;katex&quot;&gt;&lt;span class=&quot;katex-mathml&quot;&gt;&lt;math xmlns=&quot;http://www.w3.org/1998/Math/MathML&quot;&gt;&lt;mrow&gt;&lt;mi&gt;A&lt;/mi&gt;&lt;/mrow&gt;A&lt;/math&gt;&lt;/span&gt;&lt;span aria-hidden=&quot;true&quot; class=&quot;katex-html&quot;&gt;&lt;span class=&quot;base&quot;&gt;&lt;span class=&quot;strut&quot;&gt;&lt;/span&gt;&lt;span class=&quot;mord mathnormal&quot;&gt;A&lt;/span&gt;&lt;/span&gt;&lt;/span&gt;&lt;/span&gt;) se puede calcular restando la probabilidad de que el evento ocurra de 1." style="text;html=1;align=left;verticalAlign=middle;whiteSpace=wrap;rounded=0;" vertex="1" parent="1">
          <mxGeometry x="200" y="248" width="320" height="30" as="geometry" />
        </mxCell>
        <mxCell id="tpbJYBQwwvRPyvvn6ZV0-23" value="" style="shape=image;verticalLabelPosition=bottom;labelBackgroundColor=default;verticalAlign=top;aspect=fixed;imageAspect=0;image=data:image/png,iVBORw0KGgoAAAANSUhEUgAAANgAAAAjCAYAAAD2dcQ3AAAAAXNSR0IArs4c6QAAAARnQU1BAACxjwv8YQUAAAAJcEhZcwAADsMAAA7DAcdvqGQAAAvmSURBVHhe7Z1/bJvFGce/Y0gEQRQQfzgaP1KB10DV2Z1WEo1VtUggosJxtKYtk1K5LJBs0JSCSrUuoYilFDonSCUOE4RVkFBp1Olo7VR0SVGJ80eRHQmwJ6oGqZ3fqkF+ERV+UaO4otLt7n3Pv1+/9uvGnTu9H+niu/P78957nnvuee51fkIoMDAwKAs38E8DA4MyYAiYgUEZMQTMwKCMGAJmYFBGDAEzMCgjhoAZGJSR8gqYFMRAew9887xc0cQhSXGeL0A8jIEtL2LqPC8bVDTC4R5seCNMn3AJXNHoF/M+9GxxI7zAyyqkxcHiEGYDiCwqpbzcXIv7V9TDdAsv52OBCpejF9h3DDsfrOKVlYt4eDN+3nkbDv5nGI47eKUW58fxlONfeMx3ABvv4XUGV8/FOfi/ivJCfm5ftgrL76lBoZ4lHH4K9qnHcGxkI+p4XfHEEdz7KB6Z7cK/jzpV94/PDsC+C3jNtxMNajLBBEwhQjzP2Im9zU5Wm6tJdTVN1ma5nJ6arew7M7Hv8pAzl/iuOcTI5Atm0jwc4uVKJ0o8TuWet/pivK4wsY93EHOTi4QWeUWlE50mrk0rietzXq5AYn4X6WB9rWml0gdpX1v9eGYftD++mpjl/tlBhk5pPK/QEGk27yCT3/GyXtj+8jW4SIBXqREabibmLi/tRbmkCViCCBltUzrbjo/VLj5GD9guf5/voIsne4nZ3Eum8wpghXHBQzrkhqTpGS+9w2KhbbW+uoIVSYyc8U8Sz9tDpPf3vFPS5AryrysY1ofk5/GbIaLaulEv2SEPBM1UYahpOOXZtL8X4WW90AGHK93qaiqkWp3i0jTpNZtV5SV3DibNIXySZWyw1NfIVZnUwNL6BBw0J344AE9YqU0hwDPsRm3PE7AVMiMrBPEzLwImk1I4OAX/RSVbmDq0PelEcP8Ypore51oSg/DFHKKohe35t7C7lVdfB3x9ekbJPGzBciWXicmBTU+yTBB7PpiBJFemiH86gj0nnHC26jcMGdJxN/ovNMAql6KQLskZdW6x4YmeWowMjiFbHHIF7HQAI+zT0oJV98o1ucSiVIwYIcQvy5kUsx56YzZ0tVp4RaUjYmYigO6hN9Atl6mwnMp+XPmpWetAtziCkeNKi1QWdWjZvg3b/rARLZY63Hwjr654BMydCsm57odW5ZlnSYgllNpFKcuBIWLifTfE7fS+i5lPZ7Pgh+vP32Pv4HNcuAVECyhQy8ObYJ0dgncm80pyBCz8+ZSSyac5KOLXASpaDAeW/UzOJAmeHIGoJZyVxvwMvKe6YVvXgtbtStXYcX+ORsxLjRWNvwWmTgTpYzVYEqgVFZhgmXxWFGMOIXkbOpitqAO3PxTYMz2iJZzahN/fg7nnX4bjl7W4X65RGUiysTTCYRIx9lnmGJYlYCLmgoU0B9P4Pjln2t6F1jvlLCdMG4Z2szzCGZ8Pwz/jh39iDO43xxBkvfiKhLmZcYy86Yb7nXEE5zWcqXERwcMj6Hu2Fa3P9sFNzTmh+MFGFdk8fNqGBnq3jU3blEpdZqIJ9Q3UkDhClc5VXosB5+sQvOxTQ1HHZ/3wyRqtBbs3Nsh1CaRwAD5N4dTg3Bj6P2rDy08y07IKVdwQE78r9HDrYaUmuEitoXQRyxQwKYQAlXwtzSEc7kUv3ca0bi/+ucuWKYRiBF/So9vuW6YqnFL4EAZdL+Lpjh707abCcXoKfd0uBC7XYdVD9aiZG8IjD9gxMJsrZNIXbmz4RQc88VXofv0gDr7ejcYFH+yrN8Ad1hBKTZiyEPDcOuUBVf26BYqIjcHzafHjUd29jfSvF6FzStng6ggHfYo1kM+KWgjCvWsPHVca0H3oDTizhFA4zcTTgros66owEqaGx2B9tYvuzTCh9j45g+hCoT5WQ7elijb8JSLpXYc7OxSCLsXT9CsXmY7FSCwtRUJe8s42O/1+JWnfN0miP/J90vlc2b9jXM23mGCRTL/EPDNmYn7cRQLpnsaENy/bO8ndpWoeoch7zKPZTkbP8go9sPNleKkS10aT06PqIVWFthvbR93rqkJskvSnu531plcmdXg6E6RCEZXtRUxdZ+c/Ihl9MBY9Q6bHXaTDWk3MjVvJ6FdqrRAl3i62v7ZrXQ3muVz5QnrbJo5FzzdY2FMcHe+g264hQ2mbZghYaHiNfDC1+Jf9mV7yzvg0OaMVU+AdrdADDOxTLjpXEAPExc6f0TiKu7W6uoN4BF6VjsCFUpd7XSHyQTtZsz+z4ZLuYXa+C7yyEGdHiV31fvKzmN5x9KaS4m7XiYBR5bNDbn+V+FdbB9nx6ijxhqJUFeaD36ceBclYDBFXU+4zT/TV6n2FxTXRd9LbN81ETM2/HLsOYOLoRGb62150b7ChvhSvTB6sdRlTU3Xmg5g6wTJW1KmtmPgp/zzohb94q44iwH9EkL1rkiQl0+Xljdyb6IP3syIPeNPN1EDQR1VNDWpKTaXM3K8GtrqCzZ11p7ninUUJEvMvOPHWsaw+ePQgBvuccFhMefwDpSN82A9PUxdabk31BZZiCcvwbFQxWzWouvU2nkuRErDk/MuKxhWlxQ7Yuq0l55sI7eoa3FnHYxXjmNOzNvAcnSSfmMNA2924++609MBmJUxB8U3MFGxUg6UlOf96uhH1co1eaB+8wrPFMu9D/34BtbOD2Lxlc0ZyH+eDwOVCbkR1UgKWiH+ZHGgsNYR1YxlU641sqqmNItZWVN0kZ4pCOOVDqO8T/PDDDznpWy/3Jh7xYqaYhcqXF3Vr6nialtSdyqDHNLmjHra1thJSvc6RPRX/cjxk1W0VKNA+qCveF4f/7T7c/vonWaOlkv7+p7XKZkciPPabn/ilGM+lSApYMv7Vai1Rc1C4MISEJdT791rRJmdCENQ6+zx9KOzT1AJLvsBdDsw8FJPew2xS3sQizcSLIvz0o/aWIhWMNIWBLE2pK/11Sr/pdT2QjH9RK2p5EdOHPNzEFG0RAsGIz7rx0vmXsXOdujib7lIiYQk1roV0kZ0xS9ErU7HU+kM9E/Ucol7SSY9hL7D+KzFxzJ1sqzk5FklosJnWmUm/P3dqm5hY6loPeHaUtJu1vEz6vIls0W+296jyqHwnR9LBpPlsChMaNNPj9JLpgs6gEBlqatZ+btxxV4zTS3ESZq5bvEE2OcKT8MnrD4F6OoNmdXG9dizDtAyrqHnpPxtRl/c4M3HE5LITMSoq55K/ot+JiYkk3UZk27JvqmD542vYTUfqgb+4leB0AikI96tumH53AAe2FrZr5XOcD2Jk3x5M4QzOhOn5s9/lka/xMm6/y6aUjxyCN8zqaMqjxIRzAfp3rY4R9NqRNEVFAVHedol2L/k5LzHKNYqYOelRKhpMqJHrCo8aatStYDZPGMI3SjkbpR/44d7Sgb7Z+1F7m1o7sPfAJIhXqqD0BAnff6t1TRKiZ6l522ShMsSrGIp05qbOj0oZyajmf4VqjzwroJU4Qfa5mGZIjFxZKX30+DFKpvd3ktXW1Um3Lct37p9Wj8nlkNLgGSnL/ap+jUpSH935cUsIE5SfPPeclv7noxmPnapdGxvJSjIKmIVC91eNSybDAJkpu79HP+rM2UZJ5jyv+9A+bK7OCfuovK5ydSz6+2mD2UsL/BbFYjIeVFI4aKnhD0zPe2QG5YbHTl+avnZ9JDRE1qhMEzKXSi0BVWvb8JzFj3cnct5jWSKqkvGgax0OUkOa8WHEtBMbHy3N52VQDpTXiPDm+DV7jSj8qQehR7vgyJqpLLmAsTVgzr5uRIcPwa/xWwX/Hwjwvj+Glj4nbJUg7QZJalq7sffBMYxNXIPXiBb8ODQcxbaeTbk/K8BHsiWGreG6nn4yoDTknwxYP0oNEoNKZJHO767qJwOKRP7JgDzmaJkEjHKJTvqamukkuiJmSkuP4CGd1k719ZEGFUNkvJOs7PKUTQkuBqkQN7kyF62nUT4BY8SokK3fSrzFLpq9XmALQ51UMxrCdV0QGd9K2gdDS+/wuOAlW51DJKTx2zPGvy8yMCgjZXByGBgYJDAEzMCgjBgCZmBQNoD/Aih1gcMR1S8IAAAAAElFTkSuQmCC;" vertex="1" parent="1">
          <mxGeometry x="524" y="255.44" width="126" height="20.42" as="geometry" />
        </mxCell>
        <mxCell id="tpbJYBQwwvRPyvvn6ZV0-24" value="&lt;b&gt;Regla de la probabilidad condicionada&lt;/b&gt;" style="text;html=1;align=center;verticalAlign=middle;whiteSpace=wrap;rounded=0;" vertex="1" parent="1">
          <mxGeometry x="87.5" y="330" width="95" height="30" as="geometry" />
        </mxCell>
        <mxCell id="tpbJYBQwwvRPyvvn6ZV0-25" value="La probabilidad de que ocurra un evento &lt;span class=&quot;katex&quot;&gt;&lt;span class=&quot;katex-mathml&quot;&gt;&lt;math xmlns=&quot;http://www.w3.org/1998/Math/MathML&quot;&gt;&lt;mrow&gt;&lt;mi&gt;A&lt;/mi&gt;&lt;/mrow&gt;A&lt;/math&gt;&lt;/span&gt;&lt;span aria-hidden=&quot;true&quot; class=&quot;katex-html&quot;&gt;&lt;span class=&quot;base&quot;&gt;&lt;span class=&quot;strut&quot;&gt;&lt;/span&gt;&lt;span class=&quot;mord mathnormal&quot;&gt;A&lt;/span&gt;&lt;/span&gt;&lt;/span&gt;&lt;/span&gt;, dado que ha ocurrido un evento &lt;span class=&quot;katex&quot;&gt;&lt;span class=&quot;katex-mathml&quot;&gt;&lt;math xmlns=&quot;http://www.w3.org/1998/Math/MathML&quot;&gt;&lt;mrow&gt;&lt;mi&gt;B&lt;/mi&gt;&lt;/mrow&gt;B&lt;/math&gt;&lt;/span&gt;&lt;span aria-hidden=&quot;true&quot; class=&quot;katex-html&quot;&gt;&lt;span class=&quot;base&quot;&gt;&lt;span class=&quot;strut&quot;&gt;&lt;/span&gt;&lt;span class=&quot;mord mathnormal&quot;&gt;B&lt;/span&gt;&lt;/span&gt;&lt;/span&gt;&lt;/span&gt;, se denomina &lt;strong&gt;probabilidad condicionada&lt;/strong&gt;. La probabilidad condicionada se calcula con la siguiente fórmul" style="text;html=1;align=left;verticalAlign=middle;whiteSpace=wrap;rounded=0;" vertex="1" parent="1">
          <mxGeometry x="200" y="330" width="380" height="30" as="geometry" />
        </mxCell>
        <mxCell id="tpbJYBQwwvRPyvvn6ZV0-26" value="" style="shape=image;verticalLabelPosition=bottom;labelBackgroundColor=default;verticalAlign=top;aspect=fixed;imageAspect=0;image=data:image/png,iVBORw0KGgoAAAANSUhEUgAAAPsAAABSCAYAAACSYaKAAAAAAXNSR0IArs4c6QAAAARnQU1BAACxjwv8YQUAAAAJcEhZcwAADsMAAA7DAcdvqGQAABPsSURBVHhe7Z0PTBtXnse/d6pUopY6VaQ12rssqCWBTROb9hpybVOsEkKvEjibBuhqg0gvCezdAuk1hN0GSqqG0maBdLtAelsathsf3W0gTQuONgdJk5hF22B0aeyouZAoXZw2FbNqrnbaCFcbae7NHxtjz9jzxykufh/p4Zk3Np4Zz++93+/93u/3/o4lgEKhzHv+XnylUCjzHCrsFEqSQIWdQkkSqLBTKEkCFXYKJUmgwk6hJAlU2CmUJIEKO4WSJFBhp1CSBCrslITEc6gGJXvd8Iv7qrjph8+n6ZMJjB/uveXYcdQj7quHTpel6OfaBBwfT4k78tydkYOlPzAgRdyXw3NoC4qG/wVHukuRLtYpxw9ny1oUjFfi3PsVGj5/q/CD+WgMF74Sd2VZgLQsE7KMUnfJg/6qIvx34RH0lKi/MirsFN34RtpQ/eoIfF9NwjHO9TxGZOVlI+024TjPzSlcGJkAc48VLf+5D7UPGcQDYbg7UbDBg5+fbkfhIrFODdznVzfCiSYcv16PXLF67pmAbdMO9PuAqY8dmGDIXVpmQXaaeDiAeA+NebXY+3oLrD8Q6wNcG8aOf26Fse8I6u+P1WyGwQk7hRIPpk80sKmpqWzqIx2sS6ybxdQAW5dJjqeuYVvPTIuVoUyyB55MZTe8NSnuq2WS7avg/j9X6tghr1ithb9Ns16Piz3lOEWKi530Sp2vFsg5/kQ4x4YT0v/zwpsbhGvIbGBPfS1WhjD5FjmeL3OPo0BtdkrcuHh+RNh4zISlwtZsjFaUPc1tONH8X0QT4Ctn8J/sRvOxClQUa1O+fUc7sfuzXJj5vSn4vuY31ME40L29BCseLEL1awNwf+Qm5SDaNhVhRU4JdrzhAHNTfK8WfBMYs3MbVuQsle6Zs554ihwlMJ2wj4TfJSC9mNyj8Q7YjkYeiwYVdkqc8GDizy5+q+rhHBm73AfvNXHzmi9s8I2B/XedYJ4p1aa+33CgdeeXaGnfJjY0HkwFvkshvpPNKN5ix91P9+Dc2ePofbUJtc/UktKCrveP49zpfSi7w46NjzfDofJ/B7nowgD3ml+I3H/ga9SzyALrVgbd+wfIVSqHCjslPgR7LAtMWTL2OLFbXfx7OHs1nVj2IVwdwcB70RqK6Lh/14yJ/9gF6/1pyOZrXPB/w28o4xMbtryUgqaD7Sg1yZx/ihG55e04sicF7TsHSfOkHs/HI/znjA9lyw4e+s44MMhtGGtRnCd1LgaYHyZ9/7FhOK+KVQqgwk6JD4Eey1SInHv4mgj84+Qh5iWkEE2ls4fOfO4x8oBHayiiQAR19+F12PU0Jz4pSDEJ1cwXytVcZ38bzC/UIvcOsSIKKStrscPYgT63WKEYBs6TDn6rLFc8yXCu9GP7dhsRdAuaft8Ei8z5GJeuIubKIMbcyq+RCjslLridYk8nZ6/fcKLzuWbS3+ai6uBeVIQ1CJ7zXFNhQvr3hX3l+DDcZYP5pUryaQ4j0u7lNzB1Q6mvnSHfb0b2vUp1ihRkm9MwdlFl3+6/gLNEe5G01/0+uA81onjNFjgfboF91I76lVHOJz0Lq8jLwHnlijwVdkocYDDhFOz10vsy8I3PB1+gMBNwHGpD+SMF6L5Rga7T76L9iXAFlsEk54vCQixQqcP7T7aiDj/HtodmPnj77cLrmEelMN5qzjnRx28MYssP78Jdd4WU7y3G6s0TyH11FKM9tbDMsnEkMCzkzSDm6lTEQKccVNgp+vG5MMb3WEa4e2tQvql8pvy0GfYJI8psl3DudBcqlkmr6d9w9vX6DHWTYPxudL7kwa66QmLFBpjp2ZmbiTWLLmivvzCK69evR5RPT1sxuX01Fj9Yg8ErwmfkMcKYT14iBjrlocJO0U/AXkcF9h2xw/5+aOlFe2MFrCajpoG3aHje2Y2+/EoU3hmiSZDiDTz9l6cE0yIhCLHXH5A0dGBYVoFdjRZ+DKL8X7sxIdZLk4IFKoc3qLBTdBO017euQhZfoxYinWp911cHsfs1D9LG22drEqR0HhV1YF5dSBCC9nopVi2Tb/bS78sTNsZH4FYx0q4EKuwUncz4160Pm0PUaTWQhz90am1M/HD8phF3v3I8TIsQyv5fiALz3qQqP/QtJWCv51tgjmKPey4L9xJIg+FOcVMSP6bVzamhwk7RSdC/bsaqpbFGleThB9UUCqd/vBPPX9mF+iekmxbjPwqedl5jSBAC2k80/zrXcDr6eQ87jM8UQ9LFHoQBc4K8LIodWBSACjtFF/4zDnRzG0YrVsm4jmNjREYW11B4MR1TPt1487khlNWV8qPR0ZmAJ86qsDZmvBWy/nXSMDl/uQU1x8jmyia8/ZwluhD7vHzjYb6XaABCTUwSSth1xTAT/D7lI5OzYTD4sxpxwsccQOzPmk2dcN8Q978DcPfa52MwckJwJiHXCANfp+0XSF+2jvx1w/O5sB8O/31XHOjctBGN49lIW0h+6wg7n4tj94G5mQILv+/Dl3/Vfk664ePqyfdfHOJnB3KTidIXfSPUhRTm4jC5rpUoaHHC+EQLRg/Xx57c4yEaFXnJWyY92CeF9hDXGx44/2cS0+KuHAvSsmG6x4iUGDaZvhhm8jN/2Iy1jztRedYeMWEjNgz6N9UBL/eiVMN8Zd9FB87GDueOGs/tH29D0XPkFAYV/NBzzUdtWGJp5nuWCIxNGL1UL05wUcEnNpTk1CDj4KdoD1fPfcPYsbhE0CBCKD1wCT3rZ/p35r0tWLKpX9wLxYgmxyXU3y/uRqD+92cOlaMOe9FbIqdfkA6kagnK3xF3o2HMgmVtIUp/vA1lecq8Ftz3L9m8EL1/6YJVYSyBdmH/pB81223wBOKUSVX6SgsyUoXDAtOYPOGEx2hB7SvtaCrJkr4QvTHMpEfoXLOatPhA0wfXUb9SrFaMHmH3YfjFcnR+RK520gHnJ6TqnlxYMhYIhwOExHO3v7UPVfdHKl/ufQXY4NqG0W6rAhV1vuGBbcMK1Cyz46/NMVTYuOOH58OLWPiQSfkA4xUnHDdNsNzz7Z6pAHnmti9Gib8Xn75uVX7OnLDr4vIBtiha/LDXxXY8yR3PZDcfnhIrQ9Ebw0z+wx82CvG/pNT9UUsQ8xTbV7GR7ftM3NXI2EvCORTJXIt3uIHN5M9zA3vgslgZyten2IbMTI3X8N3HO1hN7k01O/CFWEGR5osBtprI026Huhh73Ta7b8INfqpAvgmSMQwGE6ylXHQu6T339pE+eDZ6Y5i5zB2de6YQGPdQPh863rgxdpR7NSLvPulrMaxdhyp+axhvHpWIorjDgqdq0tDdbou4T8mAobgKLSttsNkTxmGWkHjs5B6tbUJFnjqtQrewT5wRLCnz2hz5kL1r4o/n9ocNoOmMYSb/zfFaHb584VVsWybUeJg5GmW7OoExXkLLkLuCr9GE6bEymMc7MDAyV43WXGJCZXsTvC2dGNYaLz7f4Tq3FqCrTX1+PZ3CHujNoo0KzrgdIuY+64xhhvtNNJ+vx671puB8aNfXcyMk/otnhRjk9TnIlrsYPoyToxCVT8gMYZlWwWpkYPswGft2IOX+evS88iXqdvYnzoSYhMGD/p2kc3slMmpQCfqEPdibVcHygMwTLgo0p97WPl08a+BJVwwzN6Dz4gDWvSC0cCl3CsmIwHgVRwHFE7dTcEFZHsuVHly74UTbs41wkbOtOBDtx8qCuZhchn0sKVV5jvSSHhwpdKBOhxt2/sGlkm7E2HptmWU5dAm7IKwEOXuda4lebCDvMaLwlXfR9NjsBkF7DDP57qOdsD3wMirFDtJoFG+Aiiig+OHBhQ8580HCXr/ph2ekUwjxXFCLntOj6Fof7ccyEC2FNFzus5icK79/ApBe0oVDdaZveVQ+kUmBqa5XIjxYObpSSTt/uQQFLQyyGu04/m85Yi2HlzzgQ+h+ow22z8xoatuH+rXh/V3AD6kh5e8NBxofscPywYyrLuhj1eTn1ednx9V+lP9wi6iiS5GFCu4ebMpFuoKnV/ChetAy+ifUKrmQ8zaUN/Rr1mgMP2pH79PaQlgo3yH4MXlNuNiORwRX0/L8IrZo3exS/fwbbJ/jAuv9m/j2CDh3F/l8RR/ZUsM062pfw27sD/uUs5U/l9TUVnZMrFKOPtdbMIVy5YD0tUwNsbvzyfHMIrbVGdtdEvh/rU6xQgHTXi/r1VimZX8jynxCu7B/1sdu5IWLCIlHrFOFRmG/fIDd8E+72VNfhD20w7tFYd/MDqhrPQj6hH1sTyb/3XL+dY5gg5CpIJ+52HCpEXYKJRaa1Xjf0R1Y/FQ3MblbMDpaq356JGfPb1yBLbf14NIBJUENHJzqX4DmzzNmrzbCEZzJZ0XP/6pVx/Wo8R7YfrQCNSdiTMkMUfVjzvIbb8Nda5o1zga89XBplCiJB5ftJiq8yGsgMFssc496pVlAfc/O9Y7Lnx1iJTvGqQF2M9+za+kRdfTsQQ2ngT0VTUP/c0DzWM12xFjKg6rxlFuBxtH4Gf/6OpP2gR01MczwO9HZFJ5vLARjIF84eaueFTtUEvRIRPOvc5N//mgTNtdWwhpDDRImIZmRIiZOjMl5G7aGZWtRU7b2Rk+ARJkniEKvjuB8eH3zyV3tnK0bo0cUcXWtYdd0ResSx9hW/pxSIwfvYqK9Z1dir0/2bxbmxGduVjS+4epaTf6nzrXKKJQw1PXsN4T4W/eJQWE+PLJg4JP9afNsx4ph5nJp+3weOH5djo07ncg2GuCTiPnmY50ZIIXLtknwXWP487x1PbwYp8w4MGQXnOEm40KhLrRcccK2sxgFm/vBrKxC7wc9KA1flTMCH6a41ESycxcoFI2IQh+bEJs4smgZASdwI+vk89JRXl526FmJ7wp3b0U5r8x2petcquvZBY1E+jtnl+Xsmoo6tmPQFcUFGQ7RUDJT2dWvqV2jk6IIL7m/T1azAzo00qh8NsBWV3SwLonVV+eaOV6ffS5jmEPROakmnrg78ejqPpQpnVAzr/HDMz6GydgZUpC9LAvGWEk/uCnL1gZgzxH51VauTcDxsYJMJAszkLM0HQaJf5OoiUjmWNiJ0mqvweKNUJVxI/4kjrC7f/0oVo9U4ty76qOa5h8e9P+sBjZi5k197AC/aIxEYhAhaYgRluqX0f58KbIkBYxL+PAgWu99F8er5VtR37FmlO9zAl9NwjHODZSmIzc/A2GpSMTzSYe17W3s+2lk0ouETETCCfvc4mI78vUlr9CPvkk1cUNMXiG3SH/yMskeWCeYRnImn6trA388U2YWI+fOzMxsYE8pVa8DrtJ1B8i3S+AdIr+VcE6Sz24CJiLRGeIaD2gMcwBu2eG+H++PCBhKenwTcHNpk2UjJA0wFT8FPkXKO20Sq6t60NfVibSap2RXRQ3HfWaYf5VN/WwoxLqtwubw/sHICMUETESSAMJOY5g5ODtv++HHY6cQTkbOjwnJJqMsBw3vlPjsSKzLPt6H5mMWVBYrHQRRkvo5NomWiCQhhJ1jrmOYb79jIW5XtSpJHLk6iB1dKXj1u5BZdg4I9LKyy0ETmItjRMw5rMgIC5l2nugGE62hCCfa0spB3OLiGEDhVqv0dPFES0QiqvMUSoIiTquWtdc5Zt6T+fwpdvaIhxidGVEfBWerMAlKzl4n/2lszxr++5b/+4DMezhE9/EjHeQs5p6E6dkpFEmCy0HLZzTyHGpAA3kPt8DCu+FmEDOJs6Rjtdybodg8Ci6tLGGv+/mFKlaiYP8C1P52HKOvW6N4TRIrEQkVdkpiE1gOemke0hfNnqHocQ+iexs3Q9EJc+MhjL5dC1O4GfT5BEbIi+FOpaI+s7Qy01LAR/iFlu8tL4bNUIvjQ/1oKcmSjtMIQcigdBEeKuwUSnSCy0HfHEJ7WABPzW/GgLwdOPKXczj0i0IYpcZcbnLiC5jTFXq7Q5ZW7r10nQ8bnVX+7xJaFvWhIGcFivc6Y44vGRZxwi4xaDgXiOo8hZKAzNjiG/+gcR6G2kQgMe11wvQptoF7T2omWzccw4+eQIlIaM9OSVyC9roZq5bJW8ZRuanOtxO01x+VXwcBKdnIWc9tMOg+890JD6bCTklcAv51PctB36Zm1sKMvV72QLTVUT24wDdCpBmKMRbg/9orbs09VNgpCUvQv15shuYUKcSO56x1l5IRsqAmEc2/TgT45ACEVCRRFvsQUZ2I5BZChZ2SoHhw9pg4TeZhc8xRb1m+n4U88uJTslJQYOQ/vxC5cgFRV/pRXdVJdAAjSn8be2UWhuGEfRWyNFoh8YQKOyWxIDY271pzD2GQnw8PZBlS+DpNyUiMGcghna/j8qTsyDmf/MTHwDEsjvyvSMNC0b03Uzxw9jaieM0W9DO5qHr7uIKVWRIrEcmch7hSKDMEFg4Rd8MoPXAJPevVBoz64XhxBYqPbZPOgvxRG5ZYmgUhj0H6Siset5ahotwKk6JwbCfalhRgsGYUf3pG66BD/KDCTpn3+EeasaLIiaazdk0LImomwRKRUDWeMu9JyVuHbSYH3rR/uwEp7pN9cCnIJvxtQYWdkgSYUNFYhamug3BIJCy9Jdxw4GDXFGpryqLMnf92oWo8JUngxgNWo8McPS1VvODTUk014dyc5lacDe3ZKUmCEdZfvY3HD29H2/itzZiQqIlIqLBTkoc7clF/+GVgzw4MXhXr4k0CJyKhajyFkiTQnp1CSRKosFMoSQIVdgolSaDCTqEkCVTYKZQkgQo7hZIkUGGnUJIEKuwUSpJAhZ1CSRKosFMoSQIVdgolSaDCTqEkCVTYKZQkgQo7hZIUAP8PlGgz5FsS6TIAAAAASUVORK5CYII=;" vertex="1" parent="1">
          <mxGeometry x="600" y="320" width="153.05" height="50" as="geometry" />
        </mxCell>
        <mxCell id="tpbJYBQwwvRPyvvn6ZV0-27" value="&lt;b&gt;Teorema de Bayes&lt;/b&gt;" style="text;html=1;align=center;verticalAlign=middle;whiteSpace=wrap;rounded=0;" vertex="1" parent="1">
          <mxGeometry x="97.5" y="410" width="75" height="30" as="geometry" />
        </mxCell>
        <mxCell id="tpbJYBQwwvRPyvvn6ZV0-28" value="El teorema de Bayes permite calcular la probabilidad de un evento &lt;span class=&quot;katex&quot;&gt;&lt;span class=&quot;katex-mathml&quot;&gt;&lt;math xmlns=&quot;http://www.w3.org/1998/Math/MathML&quot;&gt;&lt;mrow&gt;&lt;mi&gt;A&lt;/mi&gt;&lt;/mrow&gt;A&lt;/math&gt;&lt;/span&gt;&lt;span aria-hidden=&quot;true&quot; class=&quot;katex-html&quot;&gt;&lt;span class=&quot;base&quot;&gt;&lt;span class=&quot;strut&quot;&gt;&lt;/span&gt;&lt;span class=&quot;mord mathnormal&quot;&gt;A&lt;/span&gt;&lt;/span&gt;&lt;/span&gt;&lt;/span&gt;, dada la ocurrencia de un evento &lt;span class=&quot;katex&quot;&gt;&lt;span class=&quot;katex-mathml&quot;&gt;&lt;math xmlns=&quot;http://www.w3.org/1998/Math/MathML&quot;&gt;&lt;mrow&gt;&lt;mi&gt;B&lt;/mi&gt;&lt;/mrow&gt;B&lt;/math&gt;&lt;/span&gt;&lt;span aria-hidden=&quot;true&quot; class=&quot;katex-html&quot;&gt;&lt;span class=&quot;base&quot;&gt;&lt;span class=&quot;strut&quot;&gt;&lt;/span&gt;&lt;span class=&quot;mord mathnormal&quot;&gt;B&lt;/span&gt;&lt;/span&gt;&lt;/span&gt;&lt;/span&gt;, cuando se conoce la probabilidad inversa (es decir, la probabilidad de &lt;span class=&quot;katex&quot;&gt;&lt;span class=&quot;katex-mathml&quot;&gt;&lt;math xmlns=&quot;http://www.w3.org/1998/Math/MathML&quot;&gt;&lt;mrow&gt;&lt;mi&gt;B&lt;/mi&gt;&lt;/mrow&gt;B&lt;/math&gt;&lt;/span&gt;&lt;span aria-hidden=&quot;true&quot; class=&quot;katex-html&quot;&gt;&lt;span class=&quot;base&quot;&gt;&lt;span class=&quot;strut&quot;&gt;&lt;/span&gt;&lt;span class=&quot;mord mathnormal&quot;&gt;B&lt;/span&gt;&lt;/span&gt;&lt;/span&gt;&lt;/span&gt; dado &lt;span class=&quot;katex&quot;&gt;&lt;span class=&quot;katex-mathml&quot;&gt;&lt;math xmlns=&quot;http://www.w3.org/1998/Math/MathML&quot;&gt;&lt;mrow&gt;&lt;mi&gt;A&lt;/mi&gt;&lt;/mrow&gt;A&lt;/math&gt;&lt;/span&gt;&lt;span aria-hidden=&quot;true&quot; class=&quot;katex-html&quot;&gt;&lt;span class=&quot;base&quot;&gt;&lt;span class=&quot;strut&quot;&gt;&lt;/span&gt;&lt;span class=&quot;mord mathnormal&quot;&gt;A&lt;/span&gt;&lt;/span&gt;&lt;/span&gt;&lt;/span&gt;) y las probabilidades de &lt;span class=&quot;katex&quot;&gt;&lt;span class=&quot;katex-mathml&quot;&gt;&lt;math xmlns=&quot;http://www.w3.org/1998/Math/MathML&quot;&gt;&lt;mrow&gt;&lt;mi&gt;A&lt;/mi&gt;&lt;/mrow&gt;A&lt;/math&gt;&lt;/span&gt;&lt;span aria-hidden=&quot;true&quot; class=&quot;katex-html&quot;&gt;&lt;span class=&quot;base&quot;&gt;&lt;span class=&quot;strut&quot;&gt;&lt;/span&gt;&lt;span class=&quot;mord mathnormal&quot;&gt;A&lt;/span&gt;&lt;/span&gt;&lt;/span&gt;&lt;/span&gt; y &lt;span class=&quot;katex&quot;&gt;&lt;span class=&quot;katex-mathml&quot;&gt;&lt;math xmlns=&quot;http://www.w3.org/1998/Math/MathML&quot;&gt;&lt;mrow&gt;&lt;mi&gt;B&lt;/mi&gt;&lt;/mrow&gt;B&lt;/math&gt;&lt;/span&gt;&lt;span aria-hidden=&quot;true&quot; class=&quot;katex-html&quot;&gt;&lt;span class=&quot;base&quot;&gt;&lt;span class=&quot;strut&quot;&gt;&lt;/span&gt;&lt;span class=&quot;mord mathnormal&quot;&gt;B&lt;/span&gt;&lt;/span&gt;&lt;/span&gt;&lt;/span&gt;." style="text;html=1;align=left;verticalAlign=middle;whiteSpace=wrap;rounded=0;" vertex="1" parent="1">
          <mxGeometry x="200" y="410" width="380" height="30" as="geometry" />
        </mxCell>
        <mxCell id="tpbJYBQwwvRPyvvn6ZV0-29" value="" style="shape=image;verticalLabelPosition=bottom;labelBackgroundColor=default;verticalAlign=top;aspect=fixed;imageAspect=0;image=data:image/png,iVBORw0KGgoAAAANSUhEUgAAAUQAAABKCAYAAADDly0CAAAAAXNSR0IArs4c6QAAAARnQU1BAACxjwv8YQUAAAAJcEhZcwAADsMAAA7DAcdvqGQAABdXSURBVHhe7Z0PUJTnnce/d+dMyBiydrzJMu2lcA2KZ3WhmYgXa2RUJLWV9ayAvZMhGaO0jWCvokkKkjYg1gCaHGCuxZjELc4lYLSAE0+06lIuKcuNddeJFR1T1tTOvpnY8qY6bKbevPe87/vswu6+f3cXFuH5zLzzPu+z/959393v+zy/5/d+n78RCGAwGAwG/pauGQwGY9rDBJHBYDAoTBAZDAaDwgSRwWAwKEwQGQwGg8IEkcFgMChMEBkMBoPCBJHBYDAoTBAZDAaDwgSRMXngXWhYX4aum3R7ouG6UPZsFzi6GW/8PA//XboRgh+efcXYcdJLt6cRd73oeLYADb/10wqT3PWD55Vfyx0vQ/EBDzm6xmG37jGihr/sxMVP6YYqX0Ba5lykWpLotgp3iBjaK4G9J7Bzkcpzbw3C+aGPbmgwKw1Zc1Oh95ER3OxAMdmFfYcLYaVVceMGee8FzyC18xPULVfaMSIMpWvw33kncKggldZNQgyegy+kZWHuly3QPgWxfmc/XHWrkDuwBZd+WYLIdyCPv7wGldiDE89n6+yLDBNERpTwcL68FY0f8BgZcsL1EamyZiDnqynywwF8V+C8zCF1XR0O7S9H9mxaHwKPnu2Pof6Rd3Fmq43WRcKfriVXfBfwlyE4B8TWVCqyV6ThfvnhIL4PnRjkUmFvOIID37XBQut1GTdBlL9fwesc7G9cQ1uByrvf6sGOf66HtZ1cFL5mVs0nBr63AVv394IPngMrMpbNQ8oM+XGJuz5c6R0E9xU76v7zAMofVz4DngO5WH/9Ofzv/jzj52gsnmbkLq2CC9U489lOZNPqUDxoXrkeF8v6cGidgbMqCiKDET0jwvldyUJycrKwtMVN60LxHasQ0snjySvqBfcIrRzDyNlKIT29Ujh/m1bo8X6N9HnJaw8LQ7QqhOFTQmW6vE/r31R8hjJ/aBc2lrQLProZL0bI/i4V91fjGAUYenM9OU5NgvazEo94zqRz8HWVffV1ChXSOVgp1F9QOOnXDwvrk9cLh6/TbdMMCe0l8jFNTq4QTg3TagXk3xd5zqe0QgMWQ2TEyFV4zsmlZfPnyoUwrOuKUCIWBmrhOMdLdaN40d7SjJSyDciZSat08FzokdbWx+cpdJMIljys3SwXe17vIm2EROLBwV1O3LdI3nLf1o5opeaXoGSgCY6T4cdpcnH1cq9cWG6D4lm32lH0tFhwofYXpEUpVQbww/lmLXqKS7D2K7TKJPzJZtT8IRuZ0pYP/G2poEjS8g3YZm1F/dv6vwQmiIzYuDGIful3VoqcR1W6efxw8A/huxMmCAPtqD2dgy356l3lUDgMutxSqSjb6GsSh/etGnR+cz+qv0m7a9zosVBkdg7smzm0vt5JLhWTFS8G35fPQemSLJXYHI/hW7R4iw8d2LjZjYP/waG8MMqu8h0n6n/0Z9Q1bqNi7IUv8FmK2JDzr5lwvdoJp84ICxNERkzwH/ajSyyssCFD7dd91Y1OqWBFZmpoHMd1thWcLQ9ZRlsK/iu4eFws2JE1Vy3O5kF/t1zK22wnf4cEcasHza9moPp7NsxLXUzrwsQhAgsyl9iB0z1wmRpt59D1cis8d+imBn5PKxpOxjCWzpOLoHR8c2BTPemDcNNzYJ2fGhKT5T7oJL8ZjQuoDp63ajH47y/C/rUUzJNq3PB/LhVUsWXbYeUccF2iFSowQWTExKBHlrrMVVnK3VdxpO8sTWVZVY0i2nWUEYWLPKLW7VLikgvt4npFHrK/JNWEIY4sbkcVabWmFrdh39OJGrEl3cJXK4CfPieFApJm0sGm6z7dtB7r3MWkK9hFWt5mus1W5K3gUbWhAS4NUfQPNGDND3nkLDMwwKBG4AKncSHzDzjRJX3RPFQXjh3u4OF+n1xCtS6gWnzkQM2xtXhROq9JSKJXO+5TnWM1NxNrxYuGS7vbzASREQNU0Ahq8UP/QDMq60j3alEpjr4SlhrBDeEi+X3mPJJmKCVCxPthryQoSvFD/w0nmp9ahNzX70f5GwPoe82uItITgOcgam+8iPLV8r/e8vdUgDx+nRYiITUDYnuy87K5TnPSop1oqwIq7cqiKInhC8Cerp3INhivVcLjohc4tQvZHReaX6gl7bZslL6zDyUhoumVW44LQ1uNxuDR0+JA5u4ttNVvRcojUiEyFBOOJQWp5EVu95DmBYkJIiN6bgbih4XISv0cPM8HF+6qEx0vF2PRylbwT7dg4Fgj8r4svWqUPw5CDM1bHjAqhxxc55xyqS4XDz74YMjy0IJ8OCzlOHOqA3UFGdHFp+KCF46XOrG2onBUkGeIf1+RK/Bp/SNFLLOk53I3fdrxRgUsj+/Eu7sjRTFeYiieg0AMt/Crafh8zDnnuUE4jzag+Ou5aL1TgpbfvIvG1WGXJHIRvCJ+/wfuN3wRDOA/V48KPIdtj4++8r775HW/V++gUvEkFxkmiIxxgffQ+KHVA8f2YhQ/NbpsruvGlS8V4cjvLmGgqUS5e3RX/HuR7nZYXFGVYPywEG3XPsNnn4Utf7qGutntyM1aiPx9Lv2W2DjBHa+BI3sPtowNXj6UJrX6gM/xueLdKmOxwrqCrHTjjcqEi2JQDI/FKoYE3o1+6RxY4WkrCznnxd+tRfegFUWOa7j0mxaUzFc46XfJ9ycr+yMm2+5+D5p3e/FixdiBmNEWIndX70hZ8JB4QdZrodP0GwbDNP170+U8sN39tMYkrnrp9fUuuq0Heb6Uz6iWfygycl6olHLT0oWKHo3kNCXikYd4m3x++ibh8OCwMDw8ZvnwsLCR7lf9BfpcVXxyjl2M+zJ8tkZYmblAWLCiXug3eShUCZyD5BohqrMuHmPy+o0d5r6ZmJ/52O7zoceULKd+Iu4LWbZ06h6r/r3ic8mxoNtKsBYiI0pG44elj2ZIa9PoXtVDCcYPn1AbwCEkzUPWOrHAofXCoFQ1cfjh+Vktur78CTqeG9NyEpdKB+SOJvkGui3EyUswfrh5MaI66/9H12a42YWaV71IGWgMPaZkaT5Jexef6wwzG4QJIiM6gvmHdiy2RRmtm2EmijQaPyx6VGtM2osrUpeOdMUNxybjxEftqHlvLY78qhvdvwxf9qOE/nfduvEuP0bMBg/D4D9owPrdSdjzP5cwsJd0n79Nus8xvqd4bAP5h/YlmdHFaP+Org3jh/NnVfjCT88oHNNuvP78Mvlpx4fI3mlBjqlG8nYAJoiMqAjmH9pIS0Ex/cUAdKBBXyAIwdiVVv4h+dmf64RDKuVhy+qJzEDk0PHSQSzeGxgBDceKtCW0qNsy5sCdJavZeuYIykhiuGt0AEUcfT4REEUDeYqqBPMPM7F4rsG4bzgz7oM4DtJ13dgIupilsOvGi9hJR+vDsf6DnIkoCp42PD65QVa2JM1jygSREQV+XHy/VSpZ8xdHn/j8xQyI13de53Y2iUDum2r+IeFGB7aWNhM5saLwjfB0j/GFP9mAmtnVKFVz6hlDl94FgB+WuqWZj6SYboWFi2GAoCiqpOQYwX/BCemsW8VegVRlHmsa5olaentEV8LEsMzBF06hqMKI2cYgvJqJ7Bx818kqO0MzFYsJIsMEovecmF7Ri5635ZrFVotcZy4cKEP+HFnkj+W8PqT65xA9BHmeg7OHxq4WpmBWIM0juHjhaqtC/spn0MFlo/TImYmx0JK8+Dh4jlaheFsr0lJnkf1V+CZ3xH0k9QF1u+UDJ+632pf2kpYYWanldqohjiYX16mn1kQrioFz0HtWSoknomKFRaqL5qSnIjOfrC6pp79InyfllG5E1cA8pMxS8pGUf4vc3STkSNs8/vyJxj7xPnjFnFebTjoWHVxJHH8dEtq/v17ZEcMIfx0RhoejfO2FJuGxxkT5iowI7saNQsV7JtxYEoy7kY4qKyzpUR3HEeH8T8h7qjmmXAiMaOovC1aQY/lqp+A24GiiislRZnfL0sh9Sa8P+y5uoZ4670QsKiOjvo6N5PGtQqep70L+R7t+LrgNOAaNuH8u1L9n8FtqnYOI72qMoV+sJ69XcagZPiVUKHzWpmOh++s7tiniOfKiMoovjY4vFZp0dti0H2JcTUEx3gaROpAr6oNnc/DZ88pOatr4wf22H1f+QjdVuR8pGTZkWJWOxT1iCjqO+HtrsXCNC9UXuye0i6vIeBrEGkb0TnwYBf42fPyaPbqBi8nORw4UZJUhQ9UsN/54DjyBpf9VhL6+cs0Qj0lBjKcpqLiTE2EQqUFMgjgIx1M70MGTrysZkpJDMT8H88IORcDM1LqsHPteq4M9/G6Ne8AUdHzxoHnpUrQX9uHXP4g6GhkfJoMg3upC2T9WwHriEqqXTdXfA4+uZx9GMSZK9OXfmPN7l3C0WKfhIQqieWI3BZ1Ig0hVxMTgvVEmFQch+/Fv8n5UnlXuul85KHYRyHNUTFDvFVPQ8WL4PfJbMWMQO16Mk0GsGaTfwrc1Es+nCu4mYWVM/3/jmDEgjnJQJVZT0Ik1iBxXgqkI6ukgGas3kEcJXDO6eyOTwe4VU9DxwrJ6J/Ytb0ftW9pOJFMe0S6sDmhpiCL8c69h24L9Px5GbUsPaS+OJx4c3N2OotZqQwbE0QlirKagE24QOY4YSQfR454wBR1PrLC/cgRPHtuOhoFoRi6nAl50/KgCf/7pxKYLJY4k2CoOYc/tCmw/Ol6/etkKrjPvCKoNxiqjEsRYTUETYRA5XmjZUQXgLzipCUI58pcpHbBoTUGnEDOzsfPYHmDvjsRNQzrjPsyaSe1TJhRxGtIq9K+bboNrqSh87QS+cbYi+mlINeCO70DTA/sNz7gnQbvOpgjc1K8+Yc4IeQ5NSYiIhwwLp35I6rVu0NdCjD0G421uoenrcvyu4r0ogogxxxDpTfga8UPB2y5sEtMu0tcI9S6N9CB3kzQRUVTfg8FgxIUoWogxmoKSrkFCDCLHAy07ez8vJeyKycKuJXXo7utWn29YJEpTUAaDET/Mz8sspib80zOkC1iIQxf3I29MSo2fu4je4wdRU9ePpKer0Var4IPHdeGZOcXoqDpjOt3Ff64Ki7pz0BdM0+HQVToHxW8TafxxH65VmEzbiCnthkBeP2dlrWrGvXg/7c4jL2LbahssY+etVcSFhgdzUbv5KD42mIY0+FYxdvwy2pC0BYV72lAyn24yGAzzgsif3IGHN7QSBVLIP7RkIHvVMqxdngfbl1RaQ1RQoTVhtxJ+Dxq+VY80RxsKxwxeuF5+ELl1pBCFwMYqiN638rFwm1NVjPnLDmxfW4aOmSVo62qJzEEMwQvHvyxEmeUQrhnNgxNvHbsTbfD0Plh0E+cZjOmFaUF0vTyHCBBpEz1PBKgqCiGJUhC9bxWg4GY5zpRl0RqZ/lcfRsE+UvhOG6612s11w2MSRA4dT83BM6TLXK6RcR8QTSxqxMCvSjU85Oj7wYQgTiCiRT+DMdUQndbHYlIQ5YxvcUaz0nc+RqOKJY8mN4ggLjApiDdJN/tbtfgkLfw2EAK9KwbrohCSWATR70TVQ/loluzsD8Gu9sHiZ5ButRhnPPS70NZtKJNbEBmM6YC5QZV4mIImzCAyzgSnw8xBpoZ6ea/LhppACiwP0KIiUZiCSm4rosNHNMt0zfdjMNQxJYjxMQVNlEFkfAlYqWvlH4pxQWeHdMRg/UE+FFMQg5g3BR1s2xxhqW582QzHZfpGDAZDRuwyG2P0/uX0mHL3qB3SrvPkHfVwC00rVmpb9oi5hGK+Y/JGof0PtM4oUechGsg/lHIxV8r7Jk7yo3cfJbU9Us/tZDAY442BFmKcTUFJeyohBpHxINBFvXoKnVL+YR5SZ4fORyzt09UeecL0Ohesq+vQZ2T6xyhNQRlTAN6FhvVl43eHzs0ulD3VDE8s0wdME3QHVTz75mDpS8rSFVXuH8HbVoCFz6bh6MeNyAvvRvI92PFwgWxVPobCw9dwaN1osI47/gzmPNVBt8ZiRbXzGnZ+jW5qYWpQZTTnURcxJWlVHgq/sw1Fy6yGusDc0WLM2TQLbb9vgV3FLo0xGfDDO9CPoRG6qcb9KZg3PwNWvQvhHSKG9kpg7wn1xP1bg3B+6KMbGsxKQ9bcVChlU8VvovqpjfnE7HiQAINIRWJKu4kn08AUdMrgRcezZXD8EUEfTHwlGzlp98sPU2S/UCtytu5B465CZCiKkHjeH0P9I+/izFb1hgV/uhbFB1xBb02xl5W9Ig2hnxjYn1TYG47gwHdtEb8jyX/UvQ19ZtPTphOiIE48w0Ln95OF5O93klICiYsfYhz4tFPYmpwu1Dj1o6qMycKQcHitHEdWvv98WHC3yD6Y6SpTBZjx6ZN4v0aOSav5AAyfEirpdAXr31R4hjSJfjq7X16DqNxuYscC+/fqkN3mQKfouj3N8XY74FhVjZIp65A8BeEH4RGzApADm6LlkwW2fNkHk3u7Ae0RVo9etLc0I6VsgyGfPhHPhR5prZrZYMnD2s1ysef1LkR85MwcbChLQWujI/IxhkSCBJEwYQaRk5zpZAo6lbjcL8e5bXnIUvMvHPbR3FgFe7qBdtSezsGWfKMxeA6DLjmntSjbfNw+gG15ETIHmtDZy/JQlUicIE6IQeRkZ7qZgk4dAq01LLdRk+JIuKv9RApF7Ej7olQI4jrbCk5LTMPRclYKIjpRyaW8zXblyZRsi2G3cnB8wNqISiRQEEXG1yBSlxlJyCBLYpiupqBTgdHWWumSLJUsAg693YGk/C3ID7mRgVroaYhpBME7o9Sc2WV3aPG22tTiNux7Wu03lSGlvXHd/azbrASNJTIYDKME5w5eozpJ0lDHJmmStfSipsi5kn2dwiby2BqlgQ8Vht5cIw/QKAwCjnjPC00lCyQT4sqOK7oDlfJ80puEzkTOpjVJSXALkcG4BwlMjzF3GVJnhyblez1daN2Wj9xNLmRWHUXfkXLYwgdN/jiIXrKyPGC0d8LBdc4pl+pyJeehsctDC/LhsJTjzKkO1BVk6KZtWa1i6/EqvGp3RkxjmCAyGCYJ3MeOu6fQGHaPeNnP+oFlO3Di95dw9Pk8WJWMge+KEoeIuYZUCcYPRWelzyTLqpDlT9dQN7sduVkLkb/PRTrP2lhmi4KYuHmIJjNMEBkMU4zGD+0vHIp0YHqtDqUFOciI591Ges5KM6zIe74a5WTfnC9txK7T2nkbSQ/MoiVGOEwQGQwz8G70S621TCyeH+Vg2F1zA4jBmR2fyFJPzUqah6x1YoFD64VBqYphHiaIDIYZAvmHVtETVKoxj6nMhtH4YdGjWmPSXlyRhJpItU5s0n97mJYY4TBBZDBMEMw/zM/UmA5ChxlET8nKbWRUI9gi1co/JCJ3rhMOqZSHLau1lZq/Jeb9ZiIpEVNQT3KYIDIYhvHi4mkaP1ySGb0JxxczIPq887cNdJ0DI9qq+YeEGx3YWtpM2pJWFL6hn+TPcaIgLkZGlD3+qQwTRAZDj4APpucUuqT7l4EMS5JUF+nTaQBrGrJII855fUh1RFjyBOU5OHvoiPbCFMyiqT2jixeuNnnu7w4uG6VHzhhI8ufhE6e1WGGLnCKYkSD7LwbjnkHbBzPcp9MYfjhfWoj809vQ11ceeYvdbxswJ0drvu9RUhfZ8aS9CCXFdtgMjWy70DAnF11lffj1D6INgk5dmCAyGAnA31uLhWtcqL7YPbH3sXua8cTSdhT1/RrlTA8jYF1mBiMBJC1bi202Jw52T+wdxZ5z7XCv2gI7E0NFmCAyGAnBhpKqUvha3oFzouY6uePEOy0+lJcVMas5FViXmcFIGGJ8cimaMrWnEIgX0hQCvmpcqs0xPNXtdIO1EBmMhGGF/ZUjePLYdjQMjK/9nTjJ1PZjT+LIC0wMtWCCyGAkkpnZ2HlsD7B3x7hOQ7qjJQn72Yx7urAuM4PBYFBYC5HBYDAoTBAZDAaDwgSRwWAwKEwQGQwGg8IEkcFgMChMEBkMBkMC+H/gEnKyHx8yXwAAAABJRU5ErkJggg==;" vertex="1" parent="1">
          <mxGeometry x="600" y="400.26" width="174" height="39.74" as="geometry" />
        </mxCell>
      </root>
    </mxGraphModel>
  </diagram>
</mxfile>
